<?xml version="1.0" encoding="UTF-8"?>
<svg width="155px" height="113px" viewBox="0 0 155 113" version="1.1" xmlns="http://www.w3.org/2000/svg" xmlns:xlink="http://www.w3.org/1999/xlink">
    <title>appareil-pixel</title>
    <g id="Page-1" stroke="none" stroke-width="1" fill="none" fill-rule="evenodd">
        <g id="desktop" transform="translate(-254.000000, -1249.000000)">
            <g id="MAIN" transform="translate(0.000000, 717.000000)">
                <g id="section-2---about" transform="translate(0.000000, 418.000000)">
                    <g id="emote" transform="translate(254.000000, 87.000000)">
                        <g id="appareil-pixel" transform="translate(0.000000, 27.000000)">
                            <polygon id="Fill-111" fill="#FFFFFF" points="106.562242 0 135.624485 0 135.624485 18.8338342 145.312242 18.8338342 145.312242 28.2497496 116.25 28.2497496 116.25 37.6666667 106.562242 37.6666667 106.562242 47.0835838 116.25 47.0835838 116.25 75.3333333 106.562242 75.3333333 106.562242 84.7502504 77.5 84.7502504 77.5 75.3333333 67.8122423 75.3333333 67.8122423 47.0835838 77.5 47.0835838 77.5 37.6666667 67.8122423 37.6666667 67.8122423 28.2497496 48.436727 28.2497496 48.436727 47.0835838 9.68672704 47.0835838 9.68672704 103.583083 67.8122423 103.583083 67.8122423 94.1671676 116.25 94.1671676 116.25 103.583083 145.312242 103.583083 145.312242 28.2497496 155 28.2497496 155 113 0 113 0 18.8338342 106.562242 18.8338342"></polygon>
                            <polygon id="Fill-112" fill="#000000" points="19.3747939 37.6667668 38.7492786 37.6667668 38.7492786 28.2498497 19.3747939 28.2498497"></polygon>
                            <polygon id="Fill-113" fill="#FFFFFF" points="58.1247939 47.083684 67.8125515 47.083684 67.8125515 37.6667668 58.1247939 37.6667668"></polygon>
                            <polygon id="Fill-114" fill="#FFFFFF" points="116.249279 47.083684 125.937036 47.083684 125.937036 37.6667668 116.249279 37.6667668"></polygon>
                            <polygon id="Fill-115" fill="#FFFFFF" points="48.4370362 84.7503506 58.1247939 84.7503506 58.1247939 47.083684 48.4370362 47.083684"></polygon>
                            <polygon id="Fill-116" fill="#FFFFFF" points="125.937036 84.7503506 135.624794 84.7503506 135.624794 47.083684 125.937036 47.083684"></polygon>
                            <polygon id="Fill-117" fill="#FFFFFF" points="58.1247939 94.1662659 67.8125515 94.1662659 67.8125515 84.7493488 58.1247939 84.7493488"></polygon>
                            <polygon id="Fill-118" fill="#FFFFFF" points="116.249279 94.1662659 125.937036 94.1662659 125.937036 84.7493488 116.249279 84.7493488"></polygon>
                        </g>
                    </g>
                </g>
            </g>
        </g>
    </g>
</svg>