<?xml version="1.0" encoding="UTF-8"?>
<svg width="142px" height="157px" viewBox="0 0 142 157" version="1.1" xmlns="http://www.w3.org/2000/svg" xmlns:xlink="http://www.w3.org/1999/xlink">
    <title>camera-pixel</title>
    <g id="Page-1" stroke="none" stroke-width="1" fill="none" fill-rule="evenodd">
        <g id="desktop" transform="translate(-579.000000, -1224.000000)" fill="#FFFFFF">
            <g id="MAIN" transform="translate(0.000000, 717.000000)">
                <g id="section-2---about" transform="translate(0.000000, 418.000000)">
                    <g id="emote" transform="translate(254.000000, 87.000000)">
                        <g id="camera-pixel" transform="translate(325.000000, 2.000000)">
                            <polygon id="Fill-119" points="50.7138434 0 111.570868 0 111.570868 9.81286194 101.427687 9.81286194 101.427687 19.6247254 91.2855374 19.6247254 91.2855374 29.4375874 101.427687 29.4375874 101.427687 39.2504493 111.570868 39.2504493 111.570868 49.0623128 101.427687 49.0623128 101.427687 58.8751747 131.856199 58.8751747 131.856199 98.125624 101.427687 98.125624 101.427687 107.937488 131.856199 107.937488 131.856199 117.750349 101.427687 117.750349 101.427687 127.563211 91.2855374 127.563211 91.2855374 137.375075 101.427687 137.375075 101.427687 147.187937 91.2855374 147.187937 91.2855374 156.9998 81.1423559 156.9998 81.1423559 147.187937 70.9991743 147.187937 70.9991743 137.375075 81.1423559 137.375075 81.1423559 127.563211 70.9991743 127.563211 70.9991743 117.750349 40.5706619 117.750349 40.5706619 107.937488 70.9991743 107.937488 70.9991743 98.125624 40.5706619 98.125624 40.5706619 88.3127621 20.2853309 88.3127621 20.2853309 98.125624 10.1421494 98.125624 10.1421494 107.937488 0 107.937488 0 49.0623128 10.1421494 49.0623128 10.1421494 58.8751747 20.2853309 58.8751747 20.2853309 68.6880367 40.5706619 68.6880367 40.5706619 58.8751747 60.8570249 58.8751747 60.8570249 49.0623128 50.7138434 49.0623128 50.7138434 39.2504493 60.8570249 39.2504493 60.8570249 29.4375874 70.9991743 29.4375874 70.9991743 19.6247254 60.8570249 19.6247254 60.8570249 9.81286194 50.7138434 9.81286194"></polygon>
                            <polygon id="Fill-120" points="40.5712811 19.6249251 50.7144626 19.6249251 50.7144626 9.81206317 40.5712811 9.81206317"></polygon>
                            <polygon id="Fill-121" points="111.570455 19.6249251 121.713637 19.6249251 121.713637 9.81206317 111.570455 9.81206317"></polygon>
                            <polygon id="Fill-122" points="30.4280996 29.4377871 40.5712811 29.4377871 40.5712811 19.6249251 30.4280996 19.6249251"></polygon>
                            <polygon id="Fill-123" points="121.713637 29.4377871 131.856818 29.4377871 131.856818 19.6249251 121.713637 19.6249251"></polygon>
                            <polygon id="Fill-124" points="40.5712811 39.2496505 50.7144626 39.2496505 50.7144626 29.4367886 40.5712811 29.4367886"></polygon>
                            <polygon id="Fill-125" points="111.570455 39.2496505 121.713637 39.2496505 121.713637 29.4367886 111.570455 29.4367886"></polygon>
                            <polygon id="Fill-126" points="30.4280996 107.937687 40.5712811 107.937687 40.5712811 98.1248253 30.4280996 98.1248253"></polygon>
                            <polygon id="Fill-127" points="131.856818 107.937687 142 107.937687 142 98.1248253 131.856818 98.1248253"></polygon>
                            <polygon id="Fill-128" points="60.8566121 157 70.9997936 157 70.9997936 147.187138 60.8566121 147.187138"></polygon>
                            <polygon id="Fill-129" points="101.428306 157 111.571488 157 111.571488 147.187138 101.428306 147.187138"></polygon>
                        </g>
                    </g>
                </g>
            </g>
        </g>
    </g>
</svg>