<?xml version="1.0" encoding="UTF-8"?>
<svg width="350px" height="350px" viewBox="0 0 350 350" version="1.1" xmlns="http://www.w3.org/2000/svg" xmlns:xlink="http://www.w3.org/1999/xlink">
    <title>doigt-pixel</title>
    <g id="Page-1" stroke="none" stroke-width="1" fill="none" fill-rule="evenodd">
        <g id="desktop" transform="translate(-255.000000, -1530.000000)" fill="#1A1A1A">
            <g id="MAIN" transform="translate(0.000000, 717.000000)">
                <g id="section-3---planning" transform="translate(0.000000, 786.000000)">
                    <g id="doigt-pixel" transform="translate(255.000000, 27.000000)">
                        <polygon id="Fill-164" points="302.8624 23.297 326.1594 23.297 326.1594 -4.54747351e-13 302.8624 -4.54747351e-13"></polygon>
                        <polygon id="Fill-165" points="256.2681 46.5942 302.8621 46.5942 302.8621 23.2972 256.2681 23.2972"></polygon>
                        <polygon id="Fill-166" points="326.1594 46.5943 349.4564 46.5943 349.4564 23.2973 326.1594 23.2973"></polygon>
                        <polygon id="Fill-167" points="209.6744 69.891 256.2684 69.891 256.2684 46.594 209.6744 46.594"></polygon>
                        <polygon id="Fill-168" points="302.8623 69.8913 326.1593 69.8913 326.1593 46.5943 302.8623 46.5943"></polygon>
                        <polygon id="Fill-169" points="186.3768 93.1885 209.6738 93.1885 209.6738 69.8915 186.3768 69.8915"></polygon>
                        <polygon id="Fill-170" points="279.5652 93.1885 302.8622 93.1885 302.8622 69.8915 279.5652 69.8915"></polygon>
                        <polygon id="Fill-171" points="163.0798 116.4855 186.3768 116.4855 186.3768 93.1885 163.0798 93.1885"></polygon>
                        <polygon id="Fill-172" points="256.2681 93.1885 279.5651 93.1885 279.5651 116.4855 302.8621 116.4855 302.8621 139.7825 256.2681 139.7825 256.2681 186.3765 302.8621 186.3765 302.8621 139.7825 326.1591 139.7825 326.1591 186.3765 349.4561 186.3765 349.4561 232.9715 326.1591 232.9715 326.1591 209.6735 302.8621 209.6735 302.8621 232.9715 279.5651 232.9715 279.5651 209.6735 256.2681 209.6735 256.2681 232.9715 209.6741 232.9705 209.6741 139.7825 232.9711 139.7825 232.9711 116.4855 256.2681 116.4855"></polygon>
                        <polygon id="Fill-173" points="139.7827 139.7826 163.0797 139.7826 163.0797 116.4856 139.7827 116.4856"></polygon>
                        <polygon id="Fill-174" points="116.4855 163.0797 139.7825 163.0797 139.7825 139.7827 116.4855 139.7827"></polygon>
                        <polygon id="Fill-175" points="93.1884 186.3767 116.4854 186.3767 116.4854 163.0797 93.1884 163.0797"></polygon>
                        <polygon id="Fill-176" points="69.8913 209.6738 93.1883 209.6738 93.1883 186.3768 69.8913 186.3768"></polygon>
                        <polygon id="Fill-177" points="46.5944 232.971 69.8914 232.971 69.8914 209.674 46.5944 209.674"></polygon>
                        <polygon id="Fill-178" points="9.99999993e-05 256.2679 46.5941 256.2679 46.5941 232.9709 9.99999993e-05 232.9709"></polygon>
                        <polygon id="Fill-179" points="302.8622 232.9711 326.1592 232.9711 326.1592 279.5651 302.8622 279.5651 302.8622 302.8621 209.6742 302.8621 209.6742 279.5651 256.2682 279.5651 256.2682 256.2681 302.8622 256.2681"></polygon>
                        <polygon id="Fill-180" points="46.5942 326.1593 209.6742 326.1593 209.6742 302.8623 46.5942 302.8623"></polygon>
                        <polygon id="Fill-181" points="0 349.4563 46.594 349.4563 46.594 326.1593 0 326.1593"></polygon>
                    </g>
                </g>
            </g>
        </g>
    </g>
</svg>