<?xml version="1.0" encoding="UTF-8"?>
<svg width="25px" height="25px" viewBox="0 0 25 25" version="1.1" xmlns="http://www.w3.org/2000/svg" xmlns:xlink="http://www.w3.org/1999/xlink">
    <title>flèche-bas</title>
    <g id="Page-1" stroke="none" stroke-width="1" fill="none" fill-rule="evenodd">
        <g id="down-arrow" transform="translate(-16.000000, -16.000000)" fill="#F2F2F2">
            <path d="M26.03,40.077 L30.035,40.077 L30.035,36.06 L26.03,36.06 L26.03,40.077 Z M24.022,36.06 L26.03,36.06 L26.03,32.043 L24.022,32.043 L24.022,36.06 Z M30.035,36.06 L32.043,36.06 L32.043,32.043 L30.035,32.043 L30.035,36.06 Z M22.013,32.044 L24.021,32.044 L24.021,28.039 L22.013,28.039 L22.013,32.044 Z M32.044,32.044 L34.052,32.044 L34.052,28.039 L32.044,28.039 L32.044,32.044 Z M20.005,28.039 L22.013,28.039 L22.013,24.022 L20.005,24.022 L20.005,28.039 Z M34.052,28.039 L36.06,28.039 L36.06,24.022 L34.052,24.022 L34.052,28.039 Z M17.996,24.022 L20.004,24.022 L20.004,20.005 L17.996,20.005 L17.996,24.022 Z M36.061,24.022 L38.069,24.022 L38.069,20.005 L36.061,20.005 L36.061,24.022 Z M16,20.005 L17.996,20.005 L17.996,16 L16,16 L16,20.005 Z M38.069,20.005 L40.077,20.005 L40.077,16 L38.069,16 L38.069,20.005 Z" id="flèche-bas"></path>
        </g>
    </g>
</svg>