<?xml version="1.0" encoding="UTF-8"?>
<svg width="228px" height="80px" viewBox="0 0 228 80" version="1.1" xmlns="http://www.w3.org/2000/svg" xmlns:xlink="http://www.w3.org/1999/xlink">
    <title>logo-loterie-romande</title>
    <g id="Page-1" stroke="none" stroke-width="1" fill="none" fill-rule="evenodd">
        <g id="desktop" transform="translate(-644.000000, -3089.000000)" fill="#FFFFFF">
            <g id="FOOTER" transform="translate(-13.000000, 3010.000000)">
                <g id="right" transform="translate(569.000000, 0.000000)">
                    <g id="logos" transform="translate(88.000000, 68.000000)">
                        <g id="logo-loterie-romande" transform="translate(0.000000, 11.406703)">
                            <path d="M204.43,43.131 L217.177,43.131 L217.177,48.302 L210.282,48.302 L210.282,49.905 L216.736,49.905 L216.736,54.755 L210.282,54.755 L210.282,56.479 L217.658,56.479 L217.658,61.65 L204.43,61.65 L204.43,43.131 Z M189.799,48.422 L189.799,56.319 L190.962,56.319 C192.445,56.319 193.567,55.998 194.329,55.357 C195.13,54.715 195.491,53.673 195.491,52.23 C195.491,51.028 195.09,50.106 194.329,49.424 C193.527,48.743 192.485,48.422 191.162,48.422 L189.799,48.422 Z M183.787,61.69 L183.787,43.131 L190.721,43.131 C192.204,43.131 193.607,43.291 194.93,43.572 C196.253,43.853 197.455,44.374 198.457,45.055 C199.5,45.777 200.301,46.699 200.903,47.861 C201.504,49.023 201.825,50.507 201.825,52.27 C201.825,53.914 201.544,55.317 200.943,56.479 C200.341,57.682 199.58,58.644 198.578,59.405 C197.616,60.167 196.453,60.728 195.211,61.089 C193.928,61.45 192.605,61.65 191.242,61.65 L183.787,61.65 L183.787,61.69 Z M163.063,43.131 L169.276,43.131 L174.567,52.551 L174.687,52.551 L174.447,43.131 L180.379,43.131 L180.379,61.69 L173.966,61.69 L168.835,52.831 L168.715,52.831 L168.995,61.69 L163.063,61.69 L163.063,43.131 Z M150.196,49.585 L148.673,54.194 L151.679,54.194 L150.196,49.585 Z M146.989,43.131 L153.603,43.131 L160.818,61.69 L154.044,61.69 L153.082,58.964 L147.19,58.964 L146.268,61.69 L139.654,61.69 L146.989,43.131 Z M120.012,51.188 L120.293,61.69 L114.481,61.69 L114.481,43.131 L122.658,43.131 L126.025,53.112 L126.145,53.112 L129.071,43.131 L137.489,43.131 L137.489,61.69 L131.396,61.69 L131.597,51.268 L131.436,51.228 L127.989,61.69 L123.58,61.69 L120.173,51.188 L120.012,51.188 Z M97.846,52.31 C97.846,52.912 97.926,53.473 98.126,53.994 C98.327,54.515 98.567,54.956 98.888,55.317 C99.209,55.677 99.609,55.958 100.05,56.158 C100.491,56.359 101.012,56.479 101.533,56.479 C102.055,56.479 102.536,56.359 102.976,56.158 C103.417,55.958 103.818,55.677 104.139,55.317 C104.46,54.956 104.74,54.515 104.901,53.994 C105.061,53.473 105.181,52.912 105.181,52.31 C105.181,51.709 105.101,51.188 104.901,50.667 C104.7,50.186 104.46,49.745 104.139,49.424 C103.818,49.104 103.417,48.823 102.976,48.623 C102.536,48.422 102.055,48.342 101.533,48.342 C101.012,48.342 100.531,48.422 100.05,48.623 C99.609,48.823 99.209,49.104 98.888,49.424 C98.567,49.785 98.327,50.186 98.126,50.667 C97.926,51.148 97.846,51.709 97.846,52.31 L97.846,52.31 Z M91.232,52.31 C91.232,50.827 91.512,49.504 92.033,48.302 C92.555,47.099 93.276,46.097 94.198,45.255 C95.12,44.414 96.202,43.772 97.445,43.331 C98.687,42.891 100.09,42.65 101.533,42.65 C103.017,42.65 104.379,42.891 105.622,43.331 C106.865,43.772 107.987,44.414 108.909,45.255 C109.831,46.097 110.552,47.099 111.073,48.302 C111.595,49.504 111.875,50.827 111.875,52.31 C111.875,53.793 111.595,55.156 111.073,56.359 C110.552,57.601 109.831,58.644 108.909,59.485 C107.987,60.367 106.905,61.009 105.622,61.49 C104.379,61.971 103.017,62.211 101.533,62.211 C100.05,62.211 98.687,61.971 97.445,61.49 C96.202,61.009 95.12,60.367 94.198,59.485 C93.276,58.604 92.555,57.561 92.033,56.359 C91.472,55.156 91.232,53.793 91.232,52.31 L91.232,52.31 Z M79.287,50.947 L80.489,50.947 C80.69,50.947 80.93,50.947 81.171,50.907 C81.411,50.867 81.652,50.787 81.852,50.667 C82.052,50.547 82.253,50.386 82.413,50.186 C82.573,49.985 82.614,49.705 82.614,49.384 C82.614,49.063 82.533,48.783 82.413,48.583 C82.293,48.382 82.133,48.262 81.932,48.142 C81.732,48.061 81.531,47.981 81.291,47.941 C81.05,47.901 80.85,47.901 80.649,47.901 L79.166,47.901 L79.166,50.947 L79.287,50.947 Z M73.274,43.131 L81.251,43.131 C82.173,43.131 83.055,43.211 83.976,43.412 C84.858,43.612 85.66,43.933 86.382,44.374 C87.103,44.855 87.664,45.456 88.105,46.258 C88.546,47.019 88.747,48.021 88.747,49.184 C88.747,50.306 88.466,51.308 87.905,52.19 C87.344,53.072 86.542,53.713 85.5,54.194 L90.19,61.73 L83.014,61.73 L79.447,55.116 L79.247,55.116 L79.247,61.73 L73.194,61.73 L73.194,43.131 L73.274,43.131 Z M204.39,15.994 L217.177,15.994 L217.177,21.205 L210.282,21.205 L210.282,22.808 L216.776,22.808 L216.776,27.658 L210.282,27.658 L210.282,29.382 L217.658,29.382 L217.658,34.593 L204.43,34.593 L204.43,15.994 L204.39,15.994 Z M194.128,34.593 L200.421,34.593 L200.421,15.994 L194.128,15.994 L194.128,34.593 Z M180.82,23.85 L182.063,23.85 C182.263,23.85 182.504,23.85 182.744,23.81 C182.985,23.77 183.225,23.69 183.466,23.57 C183.666,23.45 183.867,23.289 184.027,23.089 C184.187,22.888 184.268,22.608 184.268,22.287 C184.268,21.966 184.187,21.686 184.067,21.485 C183.947,21.285 183.787,21.165 183.586,21.045 C183.386,20.964 183.185,20.884 182.985,20.844 C182.744,20.804 182.544,20.804 182.344,20.804 L180.86,20.804 L180.86,23.85 L180.82,23.85 Z M174.808,15.994 L182.825,15.994 C183.746,15.994 184.628,16.074 185.55,16.274 C186.472,16.475 187.274,16.796 187.955,17.236 C188.677,17.718 189.238,18.319 189.679,19.12 C190.12,19.882 190.32,20.884 190.32,22.047 C190.32,23.169 190.04,24.171 189.479,25.053 C188.917,25.935 188.116,26.576 187.073,27.057 L191.803,34.593 L184.628,34.593 L181.061,27.939 L180.86,27.939 L180.86,34.593 L174.808,34.593 L174.808,15.994 Z M157.411,15.994 L170.198,15.994 L170.198,21.205 L163.303,21.205 L163.303,22.808 L169.797,22.808 L169.797,27.658 L163.303,27.658 L163.303,29.382 L170.679,29.382 L170.679,34.593 L157.451,34.593 L157.451,15.994 L157.411,15.994 Z M149.394,34.593 L143.141,34.593 L143.141,21.245 L138.571,21.245 L138.571,15.994 L153.964,15.994 L153.964,21.245 L149.394,21.245 L149.394,34.593 Z M122.498,25.173 C122.498,25.774 122.578,26.336 122.778,26.857 C122.979,27.378 123.219,27.819 123.54,28.18 C123.86,28.54 124.261,28.821 124.702,29.021 C125.143,29.222 125.664,29.342 126.185,29.342 C126.706,29.342 127.187,29.262 127.628,29.021 C128.069,28.821 128.47,28.54 128.791,28.18 C129.111,27.819 129.392,27.378 129.552,26.857 C129.753,26.336 129.833,25.774 129.833,25.173 C129.833,24.572 129.753,24.051 129.552,23.53 C129.352,23.049 129.111,22.608 128.791,22.287 C128.47,21.966 128.069,21.686 127.628,21.485 C127.187,21.285 126.706,21.205 126.185,21.205 C125.664,21.205 125.183,21.285 124.702,21.485 C124.261,21.686 123.86,21.966 123.54,22.287 C123.219,22.608 122.979,23.049 122.778,23.53 C122.618,24.051 122.498,24.572 122.498,25.173 L122.498,25.173 Z M115.844,25.173 C115.844,23.69 116.124,22.327 116.645,21.125 C117.166,19.922 117.888,18.92 118.81,18.078 C119.732,17.236 120.814,16.595 122.097,16.154 C123.339,15.713 124.702,15.473 126.185,15.473 C127.668,15.473 129.031,15.713 130.274,16.154 C131.517,16.595 132.639,17.277 133.561,18.078 C134.483,18.92 135.204,19.922 135.725,21.125 C136.247,22.327 136.527,23.69 136.527,25.173 C136.527,26.656 136.247,28.019 135.725,29.262 C135.204,30.504 134.483,31.547 133.561,32.388 C132.639,33.27 131.557,33.912 130.274,34.393 C129.031,34.874 127.628,35.114 126.185,35.114 C124.702,35.114 123.339,34.874 122.097,34.393 C120.854,33.912 119.732,33.27 118.81,32.388 C117.888,31.507 117.166,30.464 116.645,29.262 C116.124,28.019 115.844,26.656 115.844,25.173 L115.844,25.173 Z M101.092,15.994 L107.386,15.994 L107.386,29.182 L113.559,29.182 L113.559,34.553 L101.092,34.553 L101.092,15.994 Z M225.514,1.724 L52.911,1.724 C62.09,8.177 68.063,18.84 68.063,30.945 C68.063,50.667 52.109,66.661 32.428,66.661 C19.36,66.661 7.936,59.606 1.723,49.063 L1.723,77.483 L225.514,77.483 L225.514,1.724 Z M1.723,12.827 C4.289,8.418 7.816,4.65 11.945,1.724 L1.723,1.724 L1.723,12.827 Z M7.495,30.945 C7.495,44.734 18.639,55.918 32.428,55.918 C46.217,55.918 57.36,44.734 57.36,30.945 C57.36,17.116 46.217,5.933 32.428,5.933 C18.639,5.933 7.495,17.116 7.495,30.945 L7.495,30.945 Z M0,79.207 L227.238,79.207 L227.238,0 L0,0 L0,79.207 Z M16.635,36.036 C16.635,27.258 23.69,20.083 32.388,20.083 C41.086,20.083 48.181,27.258 48.181,36.036 C48.181,44.815 41.086,51.9501664 32.388,51.9501664 C23.73,51.99 16.635,44.815 16.635,36.036 L16.635,36.036 Z" id="Fill-415"></path>
                        </g>
                    </g>
                </g>
            </g>
        </g>
    </g>
</svg>