<?xml version="1.0" encoding="UTF-8"?>
<svg width="179px" height="66px" viewBox="0 0 179 66" version="1.1" xmlns="http://www.w3.org/2000/svg" xmlns:xlink="http://www.w3.org/1999/xlink">
    <title>logo-eikon</title>
    <g id="Page-1" stroke="none" stroke-width="1" fill="none" fill-rule="evenodd">
        <g id="desktop" transform="translate(-1615.000000, -3101.000000)" fill="#F2F2F2">
            <g id="FOOTER" transform="translate(-13.000000, 3010.000000)">
                <g id="right" transform="translate(569.000000, 0.000000)">
                    <g id="logos" transform="translate(88.000000, 68.000000)">
                        <g id="logo-eikon" transform="translate(971.549400, 23.037103)">
                            <polygon id="Fill-469" points="78.3537 61.9617 1.2027 61.9617 1.2027 65.5707 80.1587 65.5707"></polygon>
                            <polygon id="Fill-470" points="81.512 61.9617 83.317 65.5707 177.462 65.5707 177.462 61.9617"></polygon>
                            <path d="M18.197,17.0172 C27.822,17.0172 35.342,24.5372 35.342,34.1622 C35.342,35.5152 35.342,37.1702 34.89,39.7262 L8.722,39.7262 C8.722,45.1402 11.429,49.6522 18.347,49.6522 C23.31,49.6522 25.115,47.3962 26.168,44.6892 L34.89,44.6892 C33.687,51.3062 27.822,57.1722 18.347,57.1722 C6.015,57.1722 0,47.3962 0,37.0192 C0,25.5892 6.617,17.0172 18.197,17.0172 L18.197,17.0172 Z M26.92,33.1092 C26.92,27.8452 23.31,24.3862 18.047,24.3862 C12.933,24.3862 9.023,27.3942 9.023,33.1092 L26.92,33.1092 Z" id="Fill-464"></path>
                            <path d="M48.5761,0.0003 C52.0351,0.0003 54.7421,2.5573 54.7421,5.8653 C54.7421,9.0243 52.0351,11.5803 48.5761,11.5803 C45.2671,11.5803 42.5601,9.0243 42.5601,5.8653 C42.5601,2.5573 45.2671,0.0003 48.5761,0.0003 L48.5761,0.0003 Z M44.0641,55.9463 L53.2381,55.9463 L53.2381,18.7993 L44.0641,18.7993 L44.0641,55.9463 Z" id="Fill-465"></path>
                            <polygon id="Fill-466" points="61.961 55.946 61.961 0 70.834 0 70.834 35.192 84.971 18.649 95.95 18.649 80.158 37.297 95.95 55.946 84.971 55.946 70.834 39.553 70.834 55.946"></polygon>
                            <path d="M114.1471,16.9946 C126.6301,16.9946 134.9011,26.1686 134.9011,36.9966 C134.9011,47.8246 126.6301,57.1496 114.1471,57.1496 C101.6641,57.1496 93.5431,47.9756 93.5431,37.1466 C93.5431,26.3186 101.8151,16.9946 114.1471,16.9946 M114.1471,49.1786 C121.0651,49.1786 125.7271,43.6136 125.7271,36.9966 C125.7271,30.3796 121.0651,24.8146 114.1471,24.8146 C107.2291,24.8146 102.7171,30.3796 102.7171,36.9966 C102.7171,43.6136 107.2291,49.1786 114.1471,49.1786" id="Fill-467"></path>
                            <path d="M139.7136,55.946 L139.7136,18.047 L148.5866,18.047 L148.5866,23.311 C150.9926,19.1 155.3546,16.995 161.0696,16.995 C166.6336,16.995 170.2436,18.95 172.4996,22.108 C174.4546,24.965 174.9056,28.124 174.9056,33.387 L174.9056,55.946 L166.0326,55.946 L166.0326,36.395 C166.0326,29.928 164.0776,24.965 157.7606,24.965 C151.5946,24.965 148.5866,29.928 148.5866,36.395 L148.5866,55.946 L139.7136,55.946 Z" id="Fill-468"></path>
                        </g>
                    </g>
                </g>
            </g>
        </g>
    </g>
</svg>