<?xml version="1.0" encoding="UTF-8"?>
<svg width="202px" height="71px" viewBox="0 0 202 71" version="1.1" xmlns="http://www.w3.org/2000/svg" xmlns:xlink="http://www.w3.org/1999/xlink">
    <title>logo-frisson</title>
    <g id="Page-1" stroke="none" stroke-width="1" fill="none" fill-rule="evenodd">
        <g id="desktop" transform="translate(-1021.000000, -3096.000000)" fill="#F2F2F2">
            <g id="FOOTER" transform="translate(-13.000000, 3010.000000)">
                <g id="right" transform="translate(569.000000, 0.000000)">
                    <g id="logos" transform="translate(88.000000, 68.000000)">
                        <g id="logo-frisson" transform="translate(377.887500, 18.215403)">
                            <path d="M136.079,60.1339 C129.785,60.1339 124.641,54.9849 124.641,48.6939 C124.641,42.3459 129.787,37.1609 136.079,37.1609 C142.426,37.1609 147.611,42.3489 147.611,48.6939 C147.611,54.9839 142.426,60.1339 136.079,60.1339 M136.079,27.2919 C126.777,27.2919 118.937,33.2719 116.016,41.5629 C114.473,37.2209 111.592,33.5039 107.848,30.9619 C104.772,28.8669 102.735,25.3709 102.735,21.3999 C102.735,15.0989 107.923,9.9579 114.27,9.9579 L114.27,0.0939 C102.51,0.0939 92.887,9.5839 92.887,21.4009 C92.887,28.7549 96.607,35.2529 102.253,39.1059 L102.253,39.1209 C105.347,41.1939 107.382,44.7139 107.382,48.6959 C107.382,54.9869 102.194,60.1349 95.85,60.1349 C89.538,60.1349 84.41,54.9869 84.41,48.6959 L74.543,48.6959 C74.542,60.4149 84.124,69.9999 95.848,69.9999 C105.139,69.9999 113.075,64.0619 116.014,55.7519 C118.945,64.0289 126.844,69.9999 136.079,69.9999 C147.853,69.9999 157.478,60.5079 157.478,48.6929 C157.479,36.8799 147.889,27.2919 136.079,27.2919" id="Fill-417"></path>
                            <path d="M190.3201,69.046 L200.3181,69.046 L200.3181,48.693 C200.3181,36.88 190.6031,27.29 178.8821,27.29 C167.0641,27.29 157.4781,36.88 157.4781,48.693 L157.4781,69.068 L167.3491,69.068 L167.3491,48.693 C167.3491,42.402 172.5351,37.16 178.8821,37.16 C185.1721,37.16 190.3201,42.402 190.3201,48.693 L190.3201,69.046 Z" id="Fill-419"></path>
                            <path d="M57.707,26.386 L57.707,26.386 C51.148,26.386 45.26,29.402 41.342,34.105 C37.427,29.401 31.52,26.386 24.96,26.386 L22.309,26.386 L22.309,21.307 C22.309,15.016 27.495,9.87 33.843,9.87 L33.843,0 C22.083,0 12.441,9.496 12.441,21.307 L12.441,26.386 L-9.09494702e-13,26.386 L-9.09494702e-13,36.253 L12.441,36.253 L12.441,69.124 L22.309,69.124 L22.309,36.253 L24.96,36.253 C31.269,36.253 36.398,41.385 36.398,47.693 L36.398,69.078 L46.269,69.078 L46.269,47.693 C46.269,41.384 51.416,36.253 57.707,36.253 L60.362,36.253 L60.362,69.078 L70.227,69.078 L70.227,26.386 L57.707,26.386 Z" id="Fill-421"></path>
                            <polygon id="Fill-423" points="90.201 26.386 74.497 36.253 74.497 46.368 90.201 36.748"></polygon>
                            <polygon id="Fill-425" points="60.3594 23.7302 70.2244 23.7302 70.2244 0.0982 60.3594 0.0982"></polygon>
                        </g>
                    </g>
                </g>
            </g>
        </g>
    </g>
</svg>