<?xml version="1.0" encoding="UTF-8"?>
<svg width="1281px" height="363px" viewBox="0 0 1281 363" version="1.1" xmlns="http://www.w3.org/2000/svg" xmlns:xlink="http://www.w3.org/1999/xlink">
    <title>logo</title>
    <g id="Page-1" stroke="none" stroke-width="1" fill="none" fill-rule="evenodd">
        <g id="desktop" transform="translate(-124.000000, -143.000000)" fill-rule="nonzero">
            <g id="logo" transform="translate(124.000000, 143.000000)">
                <g id="Group" fill="#FFFFFF">
                    <g transform="translate(32.700000, 0.000000)">
                        <path d="M10.35,8.3 L10.35,11.04 C10.35,11.56 9.93,11.95 9.44,11.95 L2.9,11.95 C2.38,11.95 1.99,12.37 1.99,12.86 L1.99,13.52 C1.99,13.75 2.08,13.99 2.25,14.18 L3.05,14.98 C3.21,15.14 3.45,15.24 3.71,15.24 L7.04,15.24 C7.27,15.24 7.51,15.15 7.7,14.98 L8.4,14.28 C8.75,13.93 9.34,13.93 9.69,14.28 L9.69,14.28 C10.04,14.63 10.04,15.22 9.69,15.57 L8.52,16.74 C8.36,16.9 8.12,17 7.86,17 L2.82,17 C2.59,17 2.35,16.91 2.16,16.74 L0.26,14.84 C0.1,14.68 0,14.44 0,14.21 L0,8.3 C0,8.07 0.09,7.83 0.26,7.64 L2.16,5.74 C2.32,5.58 2.56,5.48 2.82,5.48 L7.53,5.48 C7.76,5.48 8,5.57 8.19,5.74 L10.09,7.64 C10.25,7.83 10.37,8.06 10.37,8.3 L10.35,8.3 Z M8.36,9.31 L8.36,8.96 C8.36,8.73 8.27,8.49 8.1,8.3 L7.28,7.5 C7.12,7.34 6.88,7.24 6.62,7.24 L3.69,7.24 C3.46,7.24 3.22,7.33 3.03,7.5 L2.23,8.3 C2.07,8.46 1.97,8.7 1.97,8.96 L1.97,9.31 C1.97,9.83 2.39,10.22 2.88,10.22 L7.43,10.22 C7.92,10.24 8.34,9.82 8.34,9.31 L8.36,9.31 Z" id="Shape"></path>
                        <path d="M13.73,0.19 L13.73,0.19 C14.27,0.19 14.71,0.64 14.71,1.17 L14.71,1.76 C14.71,2.3 14.26,2.74 13.73,2.74 L13.73,2.74 C13.19,2.74 12.75,2.29 12.75,1.76 L12.75,1.17 C12.73,0.63 13.17,0.19 13.73,0.19 L13.73,0.19 Z M13.73,5.49 L13.73,5.49 C14.27,5.49 14.71,5.94 14.71,6.47 L14.71,16.01 C14.71,16.55 14.26,16.99 13.73,16.99 L13.73,16.99 C13.19,16.99 12.75,16.54 12.75,16.01 L12.75,6.47 C12.73,5.93 13.17,5.49 13.73,5.49 Z" id="Shape"></path>
                        <path d="M24.84,16.74 L21.23,13.06 C20.67,12.47 19.68,12.9 19.68,13.69 L19.68,16.13 C19.68,16.62 19.28,17.02 18.79,17.02 L18.6,17.02 C18.11,17.02 17.71,16.62 17.71,16.13 L17.71,0.89 C17.71,0.4 18.11,0 18.6,0 L18.79,0 C19.28,0 19.68,0.4 19.68,0.89 L19.68,8.63 C19.68,9.43 20.66,9.85 21.23,9.26 L24.68,5.74 C24.84,5.58 25.08,5.46 25.31,5.46 L25.31,5.46 C26.11,5.46 26.51,6.42 25.94,6.98 L22.56,10.45 C22.21,10.8 22.21,11.36 22.56,11.72 L26.29,15.47 C26.85,16.03 26.45,16.99 25.66,16.99 L25.5,16.99 C25.24,17.01 25.03,16.92 24.84,16.73 L24.84,16.74 Z" id="Path"></path>
                        <path d="M38.93,8.86 L38.93,13.64 C38.93,14.25 38.7,14.81 38.27,15.23 L37.17,16.33 C36.75,16.75 36.16,16.99 35.58,16.99 L31.97,16.99 C31.36,16.99 30.8,16.76 30.38,16.33 L29.28,15.23 C28.86,14.81 28.62,14.22 28.62,13.64 L28.62,8.86 C28.62,8.25 28.85,7.69 29.28,7.27 L30.38,6.17 C30.8,5.75 31.39,5.51 31.97,5.51 L35.58,5.51 C36.19,5.51 36.75,5.74 37.17,6.17 L38.27,7.27 C38.69,7.69 38.93,8.25 38.93,8.86 L38.93,8.86 Z M36.96,12.99 L36.96,9.52 C36.96,8.91 36.73,8.35 36.3,7.93 L36.3,7.93 C35.85,7.51 35.29,7.27 34.68,7.27 L32.83,7.27 C32.22,7.27 31.66,7.5 31.24,7.93 L31.24,7.93 C30.82,8.35 30.58,8.94 30.58,9.52 L30.58,12.99 C30.58,13.6 30.81,14.16 31.24,14.58 L31.24,14.58 C31.66,15 32.25,15.24 32.83,15.24 L34.68,15.24 C35.29,15.24 35.85,15.01 36.27,14.58 L36.27,14.58 C36.72,14.16 36.95,13.57 36.95,12.99 L36.96,12.99 Z" id="Shape"></path>
                        <path d="M51.44,7.81 L51.44,16.34 C51.44,16.72 51.14,17.02 50.76,17.02 L50.13,17.02 C49.75,17.02 49.45,16.72 49.45,16.34 L49.45,8.56 C49.45,8.37 49.38,8.21 49.24,8.07 L48.63,7.46 C48.51,7.34 48.33,7.25 48.14,7.25 L45.94,7.25 C45.75,7.25 45.59,7.32 45.45,7.46 L43.64,9.27 C43.52,9.39 43.43,9.57 43.43,9.76 L43.43,16.37 C43.43,16.75 43.13,17.05 42.75,17.05 L42.12,17.05 C41.74,17.05 41.44,16.75 41.44,16.37 L41.44,6.17 C41.44,5.79 41.74,5.49 42.12,5.49 L42.59,5.49 C42.97,5.49 43.25,5.77 43.27,6.15 L43.27,6.15 C43.29,6.74 44.02,7.02 44.44,6.6 L45.35,5.69 C45.47,5.57 45.65,5.48 45.84,5.48 L49.1,5.48 C49.29,5.48 49.45,5.55 49.59,5.69 L51.23,7.33 C51.37,7.47 51.44,7.63 51.44,7.82 L51.44,7.81 Z" id="Path"></path>
                        <path d="M55.24,0.19 L55.24,0.19 C55.78,0.19 56.22,0.64 56.22,1.17 L56.22,1.76 C56.22,2.3 55.77,2.74 55.24,2.74 L55.24,2.74 C54.7,2.74 54.26,2.29 54.26,1.76 L54.26,1.17 C54.26,0.63 54.71,0.19 55.24,0.19 L55.24,0.19 Z M55.24,5.49 L55.24,5.49 C55.78,5.49 56.22,5.94 56.22,6.47 L56.22,16.01 C56.22,16.55 55.77,16.99 55.24,16.99 L55.24,16.99 C54.7,16.99 54.26,16.54 54.26,16.01 L54.26,6.47 C54.26,5.93 54.71,5.49 55.24,5.49 Z" id="Shape"></path>
                        <path d="M68.11,15.59 L66.94,16.76 C66.78,16.92 66.54,17.02 66.28,17.02 L61.59,17.02 C61.36,17.02 61.12,16.93 60.93,16.76 L59.03,14.86 C58.87,14.7 58.77,14.46 58.77,14.2 L58.77,8.29 C58.77,8.06 58.86,7.82 59.03,7.63 L60.93,5.73 C61.09,5.57 61.33,5.47 61.59,5.47 L66.16,5.47 C66.39,5.47 66.63,5.56 66.82,5.73 L67.99,6.9 C68.34,7.25 68.34,7.84 67.99,8.19 L67.99,8.19 C67.64,8.54 67.05,8.54 66.7,8.19 L66.02,7.51 C65.86,7.35 65.62,7.25 65.36,7.25 L62.48,7.25 C62.25,7.25 62.01,7.34 61.82,7.51 L61.05,8.28 C60.89,8.44 60.79,8.68 60.79,8.94 L60.79,13.51 C60.79,13.74 60.88,13.98 61.05,14.17 L61.82,14.94 C61.98,15.1 62.22,15.2 62.48,15.2 L65.48,15.2 C65.71,15.2 65.95,15.11 66.14,14.94 L66.82,14.26 C67.17,13.91 67.76,13.91 68.11,14.26 L68.11,14.26 C68.46,14.64 68.46,15.22 68.11,15.57 L68.11,15.59 Z" id="Path"></path>
                        <path d="M80.11,7.81 L80.11,16.34 C80.11,16.72 79.81,17.02 79.43,17.02 L78.96,17.02 C78.58,17.02 78.3,16.74 78.28,16.36 L78.28,16.36 C78.26,15.77 77.53,15.49 77.11,15.91 L76.2,16.82 C76.08,16.94 75.9,17.03 75.71,17.03 L72.03,17.03 C71.84,17.03 71.68,16.96 71.54,16.82 L69.97,15.25 C69.85,15.13 69.76,14.95 69.76,14.76 L69.76,12.63 C69.76,12.44 69.83,12.28 69.97,12.14 L71.31,10.8 C71.43,10.68 71.59,10.61 71.76,10.61 L77.46,10.21 C77.81,10.19 78.09,9.88 78.09,9.53 L78.09,8.52 C78.09,8.33 78.02,8.17 77.88,8.03 L77.25,7.4 C77.13,7.28 76.95,7.19 76.76,7.19 L73.2,7.19 C73.01,7.19 72.85,7.26 72.71,7.4 L71.84,8.27 C71.58,8.53 71.14,8.53 70.88,8.27 L70.55,7.94 C70.29,7.68 70.29,7.24 70.55,6.98 L71.86,5.67 C71.98,5.55 72.16,5.46 72.35,5.46 L77.77,5.46 C77.96,5.46 78.12,5.53 78.26,5.67 L79.9,7.31 C80.06,7.45 80.13,7.61 80.13,7.8 L80.11,7.81 Z M78.12,12.76 L78.12,12.67 C78.12,12.27 77.79,11.97 77.39,11.99 L72.73,12.32 C72.57,12.32 72.4,12.39 72.31,12.51 L72.01,12.81 C71.89,12.93 71.8,13.11 71.8,13.3 L71.8,14.1 C71.8,14.29 71.87,14.45 72.01,14.59 L72.48,15.06 C72.6,15.18 72.78,15.27 72.97,15.27 L75.64,15.27 C75.83,15.27 75.99,15.2 76.13,15.06 L77.96,13.23 C78.05,13.14 78.12,12.95 78.12,12.76 L78.12,12.76 Z" id="Shape"></path>
                    </g>
                    <g transform="translate(0.000000, 11.370000)">
                        <polygon id="Path" points="0 151.95 0 143.99 15.97 143.99 15.97 31.98 0 31.98 0 23.97 87.99 23.97 87.99 39.99 96 39.99 96 55.96 87.99 55.96 87.99 48 79.98 48 79.98 39.99 71.97 39.99 71.97 31.98 31.98 31.98 31.98 79.98 71.97 79.98 71.97 63.96 79.98 63.96 79.98 103.95 71.97 103.95 71.97 87.98 31.98 87.98 31.98 143.99 48 143.99 48 151.95"></polygon>
                        <path d="M119.97,151.95 L119.97,143.99 L111.96,143.99 L111.96,135.98 L103.95,135.98 L103.95,119.96 L95.99,119.96 L95.99,95.99 L103.95,95.99 L103.95,79.97 L111.96,79.97 L111.96,87.98 L159.96,87.98 L159.96,79.97 L151.95,79.97 L151.95,71.96 L119.97,71.96 L119.97,63.95 L159.96,63.95 L159.96,71.96 L167.97,71.96 L167.97,79.97 L175.98,79.97 L175.98,95.99 L111.96,95.99 L111.96,119.96 L119.97,119.96 L119.97,135.98 L127.98,135.98 L127.98,143.99 L159.96,143.99 L159.96,151.95 L119.97,151.95 Z M111.96,79.98 L111.96,71.97 L119.97,71.97 L119.97,79.98 L111.96,79.98 Z M159.96,143.99 L159.96,135.98 L167.97,135.98 L167.97,143.99 L159.96,143.99 Z M167.97,135.98 L167.97,127.97 L175.98,127.97 L175.98,135.98 L167.97,135.98 Z" id="Shape"></path>
                        <path d="M195.95,151.95 L195.95,143.99 L187.99,143.99 L187.99,123.97 L195.95,123.97 L195.95,135.98 L203.96,135.98 L203.96,143.99 L227.98,143.99 L227.98,135.98 L235.99,135.98 L235.99,119.96 L227.98,119.96 L227.98,111.95 L211.96,111.95 L211.96,103.94 L195.94,103.94 L195.94,95.98 L187.98,95.98 L187.98,79.96 L195.94,79.96 L195.94,71.95 L203.95,71.95 L203.95,87.97 L211.96,87.97 L211.96,95.98 L227.98,95.98 L227.98,103.94 L243.95,103.94 L243.95,111.95 L251.96,111.95 L251.96,135.97 L243.95,135.97 L243.95,143.98 L235.99,143.98 L235.99,151.94 L195.95,151.94 L195.95,151.95 Z M239.94,87.99 L239.94,79.98 L231.98,79.98 L231.98,71.97 L203.95,71.97 L203.95,63.96 L239.94,63.96 L239.94,71.97 L247.95,71.97 L247.95,87.99 L239.94,87.99 L239.94,87.99 Z" id="Shape"></path>
                        <path d="M279.93,151.95 L279.93,143.99 L271.92,143.99 L271.92,71.97 L263.96,71.97 L263.96,63.96 L271.92,63.96 L271.92,55.95 L279.93,55.95 L279.93,47.99 L287.94,47.99 L287.94,63.96 L311.96,63.96 L311.96,71.97 L287.94,71.97 L287.94,143.99 L303.96,143.99 L303.96,151.95 L279.94,151.95 L279.93,151.95 Z M303.95,143.99 L303.95,135.98 L311.96,135.98 L311.96,143.99 L303.95,143.99 Z" id="Shape"></path>
                        <path d="M323.97,151.95 L323.97,143.99 L331.93,143.99 L331.93,79.98 L323.97,79.98 L323.97,71.97 L331.93,71.97 L331.93,63.96 L339.94,63.96 L339.94,55.95 L347.95,55.95 L347.95,143.99 L355.96,143.99 L355.96,151.95 L323.98,151.95 L323.97,151.95 Z M331.93,39.99 L331.93,23.97 L347.95,23.97 L347.95,39.99 L331.93,39.99 Z" id="Shape"></path>
                        <path d="M395.9,151.95 L395.9,131.98 L387.89,131.98 L387.89,111.96 L379.88,111.96 L379.88,91.99 L371.92,91.99 L371.92,71.97 L359.96,71.97 L359.96,63.96 L399.9,63.96 L399.9,71.97 L387.89,71.97 L387.89,91.99 L395.9,91.99 L395.9,111.96 L403.91,111.96 L403.91,131.98 L411.92,131.98 L411.92,151.95 L395.9,151.95 L395.9,151.95 Z M411.92,131.98 L411.92,111.96 L419.93,111.96 L419.93,131.98 L411.92,131.98 Z M427.89,91.99 L427.89,71.97 L415.93,71.97 L415.93,63.96 L447.91,63.96 L447.91,71.97 L435.9,71.97 L435.9,91.99 L427.89,91.99 L427.89,91.99 Z M419.93,111.96 L419.93,91.99 L427.89,91.99 L427.89,111.96 L419.93,111.96 Z" id="Shape"></path>
                        <path d="M519.87,151.95 L519.87,143.99 L503.9,143.99 L503.9,135.98 L511.86,135.98 L511.86,103.95 L503.9,103.95 L503.9,95.99 L511.86,95.99 L511.86,79.97 L503.9,79.97 L503.9,71.96 L479.88,71.96 L479.88,79.97 L471.87,79.97 L471.87,87.98 L455.9,87.98 L455.9,79.97 L463.86,79.97 L463.86,71.96 L471.87,71.96 L471.87,63.95 L511.86,63.95 L511.86,71.96 L519.87,71.96 L519.87,79.97 L527.88,79.97 L527.88,143.98 L535.89,143.98 L535.89,151.94 L519.87,151.94 L519.87,151.95 Z M471.87,151.95 L471.87,143.99 L463.86,143.99 L463.86,135.98 L455.9,135.98 L455.9,119.96 L463.86,119.96 L463.86,111.95 L479.88,111.95 L479.88,119.96 L471.87,119.96 L471.87,135.98 L479.88,135.98 L479.88,143.99 L503.9,143.99 L503.9,151.95 L471.87,151.95 Z M479.88,111.96 L479.88,103.95 L503.9,103.95 L503.9,111.96 L479.88,111.96 Z" id="Shape"></path>
                        <polygon id="Path" points="547.9 151.95 547.9 143.99 555.86 143.99 555.86 23.98 547.9 23.98 547.9 15.97 555.86 15.97 555.86 7.96 563.87 7.96 563.87 0 571.88 0 571.88 143.99 579.89 143.99 579.89 151.95 547.91 151.95"></polygon>
                        <path d="M647.9,151.95 L647.9,143.99 L639.89,143.99 L639.89,135.98 L631.88,135.98 L631.88,119.96 L623.92,119.96 L623.92,95.99 L631.88,95.99 L631.88,79.97 L639.89,79.97 L639.89,71.96 L647.9,71.96 L647.9,63.95 L679.88,63.95 L679.88,71.96 L655.91,71.96 L655.91,79.97 L647.9,79.97 L647.9,95.99 L639.89,95.99 L639.89,119.96 L647.9,119.96 L647.9,135.98 L655.91,135.98 L655.91,143.99 L679.88,143.99 L679.88,151.95 L647.9,151.95 Z M687.89,151.95 L687.89,143.99 L679.88,143.99 L679.88,135.98 L687.89,135.98 L687.89,79.97 L679.88,79.97 L679.88,71.96 L687.89,71.96 L687.89,23.98 L679.88,23.98 L679.88,15.97 L687.89,15.97 L687.89,7.96 L695.9,7.96 L695.9,0 L703.91,0 L703.91,143.99 L711.92,143.99 L711.92,151.95 L687.9,151.95 L687.89,151.95 Z" id="Shape"></path>
                        <path d="M743.9,151.95 L743.9,143.99 L735.89,143.99 L735.89,135.98 L727.88,135.98 L727.88,119.96 L719.92,119.96 L719.92,95.99 L727.88,95.99 L727.88,79.97 L735.89,79.97 L735.89,87.98 L783.89,87.98 L783.89,79.97 L775.88,79.97 L775.88,71.96 L743.9,71.96 L743.9,63.95 L783.89,63.95 L783.89,71.96 L791.9,71.96 L791.9,79.97 L799.91,79.97 L799.91,95.99 L735.9,95.99 L735.9,119.96 L743.91,119.96 L743.91,135.98 L751.92,135.98 L751.92,143.99 L783.9,143.99 L783.9,151.95 L743.91,151.95 L743.9,151.95 Z M735.89,79.98 L735.89,71.97 L743.9,71.97 L743.9,79.98 L735.89,79.98 Z M783.89,143.99 L783.89,135.98 L791.9,135.98 L791.9,143.99 L783.89,143.99 Z M791.9,135.98 L791.9,127.97 L799.91,127.97 L799.91,135.98 L791.9,135.98 Z" id="Shape"></path>
                        <path d="M819.87,151.95 L819.87,143.99 L811.91,143.99 L811.91,123.97 L819.87,123.97 L819.87,135.98 L827.88,135.98 L827.88,143.99 L851.9,143.99 L851.9,135.98 L859.91,135.98 L859.91,119.96 L851.9,119.96 L851.9,111.95 L835.88,111.95 L835.88,103.94 L819.86,103.94 L819.86,95.98 L811.9,95.98 L811.9,79.96 L819.86,79.96 L819.86,71.95 L827.87,71.95 L827.87,87.97 L835.88,87.97 L835.88,95.98 L851.9,95.98 L851.9,103.94 L867.87,103.94 L867.87,111.95 L875.88,111.95 L875.88,135.97 L867.87,135.97 L867.87,143.98 L859.91,143.98 L859.91,151.94 L819.87,151.94 L819.87,151.95 Z M863.86,87.99 L863.86,79.98 L855.9,79.98 L855.9,71.97 L827.87,71.97 L827.87,63.96 L863.86,63.96 L863.86,71.97 L871.87,71.97 L871.87,87.99 L863.86,87.99 L863.86,87.99 Z" id="Shape"></path>
                        <path d="M923.67,97.7 C923.67,93.36 927.08,89.95 931.42,89.95 C935.76,89.95 939.17,93.36 939.17,97.7 C939.17,102.04 935.76,105.45 931.42,105.45 C927.08,105.45 923.67,102.04 923.67,97.7 Z M923.67,120.95 C923.67,116.61 927.08,113.2 931.42,113.2 C935.76,113.2 939.17,116.61 939.17,120.95 C939.17,125.29 935.76,128.7 931.42,128.7 C927.08,128.7 923.67,125.29 923.67,120.95 Z M923.67,144.2 C923.67,139.86 927.08,136.45 931.42,136.45 C935.76,136.45 939.17,139.86 939.17,144.2 C939.17,148.54 935.76,151.95 931.42,151.95 C927.08,151.95 923.67,148.54 923.67,144.2 Z M939.17,74.45 C939.17,70.11 942.58,66.7 946.92,66.7 C951.26,66.7 954.67,70.11 954.67,74.45 C954.67,78.79 951.26,82.2 946.92,82.2 C942.58,82.2 939.17,78.79 939.17,74.45 Z M939.17,120.95 C939.17,116.61 942.58,113.2 946.92,113.2 C951.26,113.2 954.67,116.61 954.67,120.95 C954.67,125.29 951.26,128.7 946.92,128.7 C942.58,128.7 939.17,125.29 939.17,120.95 Z M954.67,51.2 C954.67,46.86 958.08,43.45 962.42,43.45 C966.76,43.45 970.17,46.86 970.17,51.2 C970.17,55.54 966.76,58.95 962.42,58.95 C958.08,58.95 954.67,55.54 954.67,51.2 Z M954.67,120.95 C954.67,116.61 958.08,113.2 962.42,113.2 C966.76,113.2 970.17,116.61 970.17,120.95 C970.17,125.29 966.76,128.7 962.42,128.7 C958.08,128.7 954.67,125.29 954.67,120.95 Z M970.17,74.45 C970.17,70.11 973.58,66.7 977.92,66.7 C982.26,66.7 985.67,70.11 985.67,74.45 C985.67,78.79 982.26,82.2 977.92,82.2 C973.58,82.2 970.17,78.79 970.17,74.45 Z M970.17,120.95 C970.17,116.61 973.58,113.2 977.92,113.2 C982.26,113.2 985.67,116.61 985.67,120.95 C985.67,125.29 982.26,128.7 977.92,128.7 C973.58,128.7 970.17,125.29 970.17,120.95 Z M985.67,97.7 C985.67,93.36 989.08,89.95 993.42,89.95 C997.76,89.95 1001.17,93.36 1001.17,97.7 C1001.17,102.04 997.76,105.45 993.42,105.45 C989.08,105.45 985.67,102.04 985.67,97.7 Z M985.67,120.95 C985.67,116.61 989.08,113.2 993.42,113.2 C997.76,113.2 1001.17,116.61 1001.17,120.95 C1001.17,125.29 997.76,128.7 993.42,128.7 C989.08,128.7 985.67,125.29 985.67,120.95 Z M985.67,144.2 C985.67,139.86 989.08,136.45 993.42,136.45 C997.76,136.45 1001.17,139.86 1001.17,144.2 C1001.17,148.54 997.76,151.95 993.42,151.95 C989.08,151.95 985.67,148.54 985.67,144.2 Z" id="Shape"></path>
                        <path d="M1016.67,51.2 C1016.67,46.86 1020.08,43.45 1024.42,43.45 C1028.76,43.45 1032.17,46.86 1032.17,51.2 C1032.17,55.54 1028.76,58.95 1024.42,58.95 C1020.08,58.95 1016.67,55.54 1016.67,51.2 L1016.67,51.2 Z M1016.67,74.45 C1016.67,70.11 1020.08,66.7 1024.42,66.7 C1028.76,66.7 1032.17,70.11 1032.17,74.45 C1032.17,78.79 1028.76,82.2 1024.42,82.2 C1020.08,82.2 1016.67,78.79 1016.67,74.45 L1016.67,74.45 Z M1016.67,97.7 C1016.67,93.36 1020.08,89.95 1024.42,89.95 C1028.76,89.95 1032.17,93.36 1032.17,97.7 C1032.17,102.04 1028.76,105.45 1024.42,105.45 C1020.08,105.45 1016.67,102.04 1016.67,97.7 L1016.67,97.7 Z M1016.67,120.95 C1016.67,116.61 1020.08,113.2 1024.42,113.2 C1028.76,113.2 1032.17,116.61 1032.17,120.95 C1032.17,125.29 1028.76,128.7 1024.42,128.7 C1020.08,128.7 1016.67,125.29 1016.67,120.95 L1016.67,120.95 Z M1016.67,144.2 C1016.67,139.86 1020.08,136.45 1024.42,136.45 C1028.76,136.45 1032.17,139.86 1032.17,144.2 C1032.17,148.54 1028.76,151.95 1024.42,151.95 C1020.08,151.95 1016.67,148.54 1016.67,144.2 L1016.67,144.2 Z M1032.17,51.2 C1032.17,46.86 1035.58,43.45 1039.92,43.45 C1044.26,43.45 1047.67,46.86 1047.67,51.2 C1047.67,55.54 1044.26,58.95 1039.92,58.95 C1035.58,58.95 1032.17,55.54 1032.17,51.2 Z M1032.17,97.7 C1032.17,93.36 1035.58,89.95 1039.92,89.95 C1044.26,89.95 1047.67,93.36 1047.67,97.7 C1047.67,102.04 1044.26,105.45 1039.92,105.45 C1035.58,105.45 1032.17,102.04 1032.17,97.7 Z M1047.67,51.2 C1047.67,46.86 1051.08,43.45 1055.42,43.45 C1059.76,43.45 1063.17,46.86 1063.17,51.2 C1063.17,55.54 1059.76,58.95 1055.42,58.95 C1051.08,58.95 1047.67,55.54 1047.67,51.2 Z M1047.67,97.7 C1047.67,93.36 1051.08,89.95 1055.42,89.95 C1059.76,89.95 1063.17,93.36 1063.17,97.7 C1063.17,102.04 1059.76,105.45 1055.42,105.45 C1051.08,105.45 1047.67,102.04 1047.67,97.7 Z M1063.17,51.2 C1063.17,46.86 1066.58,43.45 1070.92,43.45 C1075.26,43.45 1078.67,46.86 1078.67,51.2 C1078.67,55.54 1075.26,58.95 1070.92,58.95 C1066.58,58.95 1063.17,55.54 1063.17,51.2 Z M1063.17,97.7 C1063.17,93.36 1066.58,89.95 1070.92,89.95 C1075.26,89.95 1078.67,93.36 1078.67,97.7 C1078.67,102.04 1075.26,105.45 1070.92,105.45 C1066.58,105.45 1063.17,102.04 1063.17,97.7 Z M1063.17,120.95 C1063.17,116.61 1066.58,113.2 1070.92,113.2 C1075.26,113.2 1078.67,116.61 1078.67,120.95 C1078.67,125.29 1075.26,128.7 1070.92,128.7 C1066.58,128.7 1063.17,125.29 1063.17,120.95 Z M1078.67,74.45 C1078.67,70.11 1082.08,66.7 1086.42,66.7 C1090.76,66.7 1094.17,70.11 1094.17,74.45 C1094.17,78.79 1090.76,82.2 1086.42,82.2 C1082.08,82.2 1078.67,78.79 1078.67,74.45 Z M1078.67,144.2 C1078.67,139.86 1082.08,136.45 1086.42,136.45 C1090.76,136.45 1094.17,139.86 1094.17,144.2 C1094.17,148.54 1090.76,151.95 1086.42,151.95 C1082.08,151.95 1078.67,148.54 1078.67,144.2 Z" id="Shape"></path>
                        <path d="M1109.67,51.2 C1109.67,46.86 1113.08,43.45 1117.42,43.45 C1121.76,43.45 1125.17,46.86 1125.17,51.2 C1125.17,55.54 1121.76,58.95 1117.42,58.95 C1113.08,58.95 1109.67,55.54 1109.67,51.2 L1109.67,51.2 Z M1125.17,51.2 C1125.17,46.86 1128.58,43.45 1132.92,43.45 C1137.26,43.45 1140.67,46.86 1140.67,51.2 C1140.67,55.54 1137.26,58.95 1132.92,58.95 C1128.58,58.95 1125.17,55.54 1125.17,51.2 L1125.17,51.2 Z M1140.67,51.2 C1140.67,46.86 1144.08,43.45 1148.42,43.45 C1152.76,43.45 1156.17,46.86 1156.17,51.2 C1156.17,55.54 1152.76,58.95 1148.42,58.95 C1144.08,58.95 1140.67,55.54 1140.67,51.2 L1140.67,51.2 Z M1140.67,74.45 C1140.67,70.11 1144.08,66.7 1148.42,66.7 C1152.76,66.7 1156.17,70.11 1156.17,74.45 C1156.17,78.79 1152.76,82.2 1148.42,82.2 C1144.08,82.2 1140.67,78.79 1140.67,74.45 Z M1140.67,97.7 C1140.67,93.36 1144.08,89.95 1148.42,89.95 C1152.76,89.95 1156.17,93.36 1156.17,97.7 C1156.17,102.04 1152.76,105.45 1148.42,105.45 C1144.08,105.45 1140.67,102.04 1140.67,97.7 Z M1140.67,120.95 C1140.67,116.61 1144.08,113.2 1148.42,113.2 C1152.76,113.2 1156.17,116.61 1156.17,120.95 C1156.17,125.29 1152.76,128.7 1148.42,128.7 C1144.08,128.7 1140.67,125.29 1140.67,120.95 Z M1140.67,144.2 C1140.67,139.86 1144.08,136.45 1148.42,136.45 C1152.76,136.45 1156.17,139.86 1156.17,144.2 C1156.17,148.54 1152.76,151.95 1148.42,151.95 C1144.08,151.95 1140.67,148.54 1140.67,144.2 Z M1156.17,51.2 C1156.17,46.86 1159.58,43.45 1163.92,43.45 C1168.26,43.45 1171.67,46.86 1171.67,51.2 C1171.67,55.54 1168.26,58.95 1163.92,58.95 C1159.58,58.95 1156.17,55.54 1156.17,51.2 Z M1171.67,51.2 C1171.67,46.86 1175.08,43.45 1179.42,43.45 C1183.76,43.45 1187.17,46.86 1187.17,51.2 C1187.17,55.54 1183.76,58.95 1179.42,58.95 C1175.08,58.95 1171.67,55.54 1171.67,51.2 Z" id="Shape"></path>
                        <path d="M1202.67,74.45 C1202.67,70.11 1206.08,66.7 1210.42,66.7 C1214.76,66.7 1218.17,70.11 1218.17,74.45 C1218.17,78.79 1214.76,82.2 1210.42,82.2 C1206.08,82.2 1202.67,78.79 1202.67,74.45 Z M1202.67,144.2 C1202.67,139.86 1206.08,136.45 1210.42,136.45 C1214.76,136.45 1218.17,139.86 1218.17,144.2 C1218.17,148.54 1214.76,151.95 1210.42,151.95 C1206.08,151.95 1202.67,148.54 1202.67,144.2 Z M1218.17,51.2 C1218.17,46.86 1221.58,43.45 1225.92,43.45 C1230.26,43.45 1233.67,46.86 1233.67,51.2 C1233.67,55.54 1230.26,58.95 1225.92,58.95 C1221.58,58.95 1218.17,55.54 1218.17,51.2 Z M1218.17,97.7 C1218.17,93.36 1221.58,89.95 1225.92,89.95 C1230.26,89.95 1233.67,93.36 1233.67,97.7 C1233.67,102.04 1230.26,105.45 1225.92,105.45 C1221.58,105.45 1218.17,102.04 1218.17,97.7 Z M1218.17,144.2 C1218.17,139.86 1221.58,136.45 1225.92,136.45 C1230.26,136.45 1233.67,139.86 1233.67,144.2 C1233.67,148.54 1230.26,151.95 1225.92,151.95 C1221.58,151.95 1218.17,148.54 1218.17,144.2 Z M1233.67,51.2 C1233.67,46.86 1237.08,43.45 1241.42,43.45 C1245.76,43.45 1249.17,46.86 1249.17,51.2 C1249.17,55.54 1245.76,58.95 1241.42,58.95 C1237.08,58.95 1233.67,55.54 1233.67,51.2 Z M1233.67,97.7 C1233.67,93.36 1237.08,89.95 1241.42,89.95 C1245.76,89.95 1249.17,93.36 1249.17,97.7 C1249.17,102.04 1245.76,105.45 1241.42,105.45 C1237.08,105.45 1233.67,102.04 1233.67,97.7 Z M1233.67,144.2 C1233.67,139.86 1237.08,136.45 1241.42,136.45 C1245.76,136.45 1249.17,139.86 1249.17,144.2 C1249.17,148.54 1245.76,151.95 1241.42,151.95 C1237.08,151.95 1233.67,148.54 1233.67,144.2 Z M1249.17,51.2 C1249.17,46.86 1252.58,43.45 1256.92,43.45 C1261.26,43.45 1264.67,46.86 1264.67,51.2 C1264.67,55.54 1261.26,58.95 1256.92,58.95 C1252.58,58.95 1249.17,55.54 1249.17,51.2 Z M1249.17,97.7 C1249.17,93.36 1252.58,89.95 1256.92,89.95 C1261.26,89.95 1264.67,93.36 1264.67,97.7 C1264.67,102.04 1261.26,105.45 1256.92,105.45 C1252.58,105.45 1249.17,102.04 1249.17,97.7 Z M1249.17,144.2 C1249.17,139.86 1252.58,136.45 1256.92,136.45 C1261.26,136.45 1264.67,139.86 1264.67,144.2 C1264.67,148.54 1261.26,151.95 1256.92,151.95 C1252.58,151.95 1249.17,148.54 1249.17,144.2 Z M1264.67,51.2 C1264.67,46.86 1268.08,43.45 1272.42,43.45 C1276.76,43.45 1280.17,46.86 1280.17,51.2 C1280.17,55.54 1276.76,58.95 1272.42,58.95 C1268.08,58.95 1264.67,55.54 1264.67,51.2 Z M1264.67,120.95 C1264.67,116.61 1268.08,113.2 1272.42,113.2 C1276.76,113.2 1280.17,116.61 1280.17,120.95 C1280.17,125.29 1276.76,128.7 1272.42,128.7 C1268.08,128.7 1264.67,125.29 1264.67,120.95 Z" id="Shape"></path>
                        <polygon id="Path" points="32.03 271.95 32.03 263.99 48 263.99 48 151.98 32.03 151.98 32.03 143.97 72.02 143.97 72.02 159.99 80.03 159.99 80.03 175.96 87.99 175.96 87.99 191.98 96 191.98 96 208 104.01 208 104.01 223.97 112.02 223.97 112.02 239.99 120.03 239.99 120.03 256.01 128.04 256.01 128.04 152.01 112.02 152.01 112.02 144 152.01 144 152.01 152.01 135.99 152.01 135.99 271.98 112.02 271.98 112.02 256.01 104.01 256.01 104.01 239.99 96 239.99 96 223.97 87.99 223.97 87.99 208 80.03 208 80.03 191.98 72.02 191.98 72.02 175.96 64.01 175.96 64.01 159.99 56 159.99 56 263.99 72.02 263.99 72.02 271.95 32.03 271.95"></polygon>
                        <path d="M171.97,271.95 L171.97,263.99 L163.96,263.99 L163.96,255.98 L155.95,255.98 L155.95,191.97 L147.99,191.97 L147.99,183.96 L171.96,183.96 L171.96,255.98 L179.97,255.98 L179.97,263.99 L199.94,263.99 L199.94,271.95 L171.96,271.95 L171.97,271.95 Z M199.95,263.99 L199.95,255.98 L207.96,255.98 L207.96,263.99 L199.95,263.99 Z M215.97,271.95 L215.97,255.98 L207.96,255.98 L207.96,247.97 L215.97,247.97 L215.97,191.96 L207.96,191.96 L207.96,183.95 L231.98,183.95 L231.98,263.98 L239.99,263.98 L239.99,271.94 L215.97,271.94 L215.97,271.95 Z" id="Shape"></path>
                        <path d="M252,271.95 L252,263.99 L259.96,263.99 L259.96,199.98 L252,199.98 L252,191.97 L259.96,191.97 L259.96,183.96 L267.97,183.96 L267.97,175.95 L275.98,175.95 L275.98,191.97 L283.99,191.97 L283.99,199.98 L275.98,199.98 L275.98,263.99 L283.99,263.99 L283.99,271.95 L252.01,271.95 L252,271.95 Z M307.96,271.95 L307.96,263.99 L315.97,263.99 L315.97,199.98 L307.96,199.98 L307.96,191.97 L283.99,191.97 L283.99,183.96 L315.97,183.96 L315.97,191.97 L323.98,191.97 L323.98,199.98 L331.99,199.98 L331.99,263.99 L340,263.99 L340,271.95 L307.97,271.95 L307.96,271.95 Z M331.98,199.98 L331.98,191.97 L339.99,191.97 L339.99,199.98 L331.98,199.98 Z M363.96,271.95 L363.96,263.99 L371.97,263.99 L371.97,199.98 L363.96,199.98 L363.96,191.97 L339.99,191.97 L339.99,183.96 L371.97,183.96 L371.97,191.97 L379.98,191.97 L379.98,199.98 L387.99,199.98 L387.99,263.99 L396,263.99 L396,271.95 L363.97,271.95 L363.96,271.95 Z" id="Shape"></path>
                        <path d="M431.98,271.95 L431.98,263.99 L423.97,263.99 L423.97,255.98 L415.96,255.98 L415.96,239.96 L408,239.96 L408,215.99 L415.96,215.99 L415.96,199.97 L423.97,199.97 L423.97,207.98 L471.97,207.98 L471.97,199.97 L463.96,199.97 L463.96,191.96 L431.98,191.96 L431.98,183.95 L471.97,183.95 L471.97,191.96 L479.98,191.96 L479.98,199.97 L487.99,199.97 L487.99,215.99 L423.98,215.99 L423.98,239.96 L431.99,239.96 L431.99,255.98 L440,255.98 L440,263.99 L471.98,263.99 L471.98,271.95 L431.99,271.95 L431.98,271.95 Z M423.97,199.98 L423.97,191.97 L431.98,191.97 L431.98,199.98 L423.97,199.98 Z M435.98,168 L435.98,159.99 L443.99,159.99 L443.99,168 L435.98,168 Z M443.99,159.99 L443.99,151.98 L452,151.98 L452,143.97 L459.96,143.97 L459.96,135.96 L475.98,135.96 L475.98,151.98 L459.96,151.98 L459.96,159.99 L443.99,159.99 L443.99,159.99 Z M471.97,263.99 L471.97,255.98 L479.98,255.98 L479.98,263.99 L471.97,263.99 Z M479.98,255.98 L479.98,247.97 L487.99,247.97 L487.99,255.98 L479.98,255.98 Z" id="Shape"></path>
                        <path d="M500,271.95 L500,263.99 L507.96,263.99 L507.96,199.98 L500,199.98 L500,191.97 L507.96,191.97 L507.96,183.96 L515.97,183.96 L515.97,175.95 L523.98,175.95 L523.98,191.97 L531.99,191.97 L531.99,199.98 L523.98,199.98 L523.98,263.99 L531.99,263.99 L531.99,271.95 L500.01,271.95 L500,271.95 Z M548,199.98 L548,191.97 L531.98,191.97 L531.98,183.96 L563.96,183.96 L563.96,199.98 L547.99,199.98 L548,199.98 Z" id="Shape"></path>
                        <path d="M571.97,271.95 L571.97,263.99 L579.93,263.99 L579.93,199.98 L571.97,199.98 L571.97,191.97 L579.93,191.97 L579.93,183.96 L587.94,183.96 L587.94,175.95 L595.95,175.95 L595.95,263.99 L603.96,263.99 L603.96,271.95 L571.98,271.95 L571.97,271.95 Z M579.93,159.99 L579.93,143.97 L595.95,143.97 L595.95,159.99 L579.93,159.99 Z" id="Shape"></path>
                        <polygon id="Path" points="671.92 319.95 671.92 311.94 679.93 311.94 679.93 263.99 671.92 263.99 671.92 255.98 679.93 255.98 679.93 199.97 671.92 199.97 671.92 191.96 647.95 191.96 647.95 199.97 639.94 199.97 639.94 215.99 631.93 215.99 631.93 239.96 639.94 239.96 639.94 255.98 647.95 255.98 647.95 263.99 671.92 263.99 671.92 271.95 639.94 271.95 639.94 263.99 631.93 263.99 631.93 255.98 623.92 255.98 623.92 239.96 615.96 239.96 615.96 215.99 623.92 215.99 623.92 199.97 631.93 199.97 631.93 191.96 639.94 191.96 639.94 183.95 679.93 183.95 679.93 191.96 687.94 191.96 687.94 175.94 695.95 175.94 695.95 311.93 703.96 311.93 703.96 319.94 671.93 319.94"></polygon>
                        <path d="M735.94,271.95 L735.94,263.99 L727.93,263.99 L727.93,255.98 L719.92,255.98 L719.92,191.97 L711.96,191.97 L711.96,183.96 L735.93,183.96 L735.93,255.98 L743.94,255.98 L743.94,263.99 L763.91,263.99 L763.91,271.95 L735.93,271.95 L735.94,271.95 Z M763.92,263.99 L763.92,255.98 L771.93,255.98 L771.93,263.99 L763.92,263.99 Z M779.94,271.95 L779.94,255.98 L771.93,255.98 L771.93,247.97 L779.94,247.97 L779.94,191.96 L771.93,191.96 L771.93,183.95 L795.95,183.95 L795.95,263.98 L803.96,263.98 L803.96,271.94 L779.94,271.94 L779.94,271.95 Z" id="Shape"></path>
                        <path d="M835.94,271.95 L835.94,263.99 L827.93,263.99 L827.93,255.98 L819.92,255.98 L819.92,239.96 L811.96,239.96 L811.96,215.99 L819.92,215.99 L819.92,199.97 L827.93,199.97 L827.93,207.98 L875.93,207.98 L875.93,199.97 L867.92,199.97 L867.92,191.96 L835.94,191.96 L835.94,183.95 L875.93,183.95 L875.93,191.96 L883.94,191.96 L883.94,199.97 L891.95,199.97 L891.95,215.99 L827.94,215.99 L827.94,239.96 L835.95,239.96 L835.95,255.98 L843.96,255.98 L843.96,263.99 L875.94,263.99 L875.94,271.95 L835.95,271.95 L835.94,271.95 Z M827.93,199.98 L827.93,191.97 L835.94,191.97 L835.94,199.98 L827.93,199.98 Z M875.93,263.99 L875.93,255.98 L883.94,255.98 L883.94,263.99 L875.93,263.99 Z M883.94,255.98 L883.94,247.97 L891.95,247.97 L891.95,255.98 L883.94,255.98 Z" id="Shape"></path>
                        <path d="M911.91,271.95 L911.91,263.99 L903.95,263.99 L903.95,243.97 L911.91,243.97 L911.91,255.98 L919.92,255.98 L919.92,263.99 L943.94,263.99 L943.94,255.98 L951.95,255.98 L951.95,239.96 L943.94,239.96 L943.94,231.95 L927.92,231.95 L927.92,223.94 L911.9,223.94 L911.9,215.98 L903.94,215.98 L903.94,199.96 L911.9,199.96 L911.9,191.95 L919.91,191.95 L919.91,207.97 L927.92,207.97 L927.92,215.98 L943.94,215.98 L943.94,223.94 L959.91,223.94 L959.91,231.95 L967.92,231.95 L967.92,255.97 L959.91,255.97 L959.91,263.98 L951.95,263.98 L951.95,271.94 L911.91,271.94 L911.91,271.95 Z M955.9,207.99 L955.9,199.98 L947.94,199.98 L947.94,191.97 L919.91,191.97 L919.91,183.96 L955.9,183.96 L955.9,191.97 L963.91,191.97 L963.91,207.99 L955.9,207.99 L955.9,207.99 Z" id="Shape"></path>
                    </g>
                </g>
                <g id="Group" transform="translate(31.210000, 304.280000)">
                    <path d="M8.29,0.3 L12.7,0.3 L8.7,20.75 L6.52,20.75 L10.09,2.48 L10.76,0.94 L10.12,0.94 C8.93,5.38 6.78,9.67 1.53,11.3 L1.15,9.36 C5.38,7.79 7.39,4.26 8.29,0.31 L8.29,0.3 Z" id="Path" fill="#FFFFFF"></path>
                    <path d="M21.45,19.21 C25.25,19.21 27.22,17.56 27.48,14.71 C27.68,12.04 26.2,10.85 23.8,10.85 L21.39,10.85 L21.71,9.05 L24.93,9.05 C27.54,9.05 28.76,7.72 29.02,5.8 C29.28,3.62 28.15,1.83 24.18,1.83 C20.21,1.83 18.32,3.54 17.8,6.96 L15.62,6.96 C16.17,2.46 19.16,0 24.35,0 C29.54,0 31.46,2.26 31.25,5.37 C31.1,7.78 29.6,9.55 26.38,9.75 L26.26,10.39 C28.38,10.91 29.89,12.22 29.6,15.03 C29.25,18.6 26.44,21.03 21.33,21.03 C16.22,21.03 13.35,18.56 14.17,12.94 L16.35,12.94 C15.62,17.49 17.57,19.2 21.46,19.2 L21.45,19.21 Z" id="Path" fill="#FFFFFF"></path>
                    <path d="M32.07,18.69 C32.13,17.41 33.2,16.4 34.51,16.4 C35.82,16.4 36.8,17.42 36.74,18.69 C36.68,20.02 35.55,21.04 34.27,21.04 C32.99,21.04 32.01,20.02 32.07,18.69 Z" id="Path" fill="#FFFFFF"></path>
                    <path d="M44.97,0.3 L49.38,0.3 L45.38,20.75 L43.2,20.75 L46.77,2.48 L47.44,0.94 L46.8,0.94 C45.61,5.38 43.46,9.67 38.21,11.3 L37.83,9.36 C42.06,7.79 44.07,4.26 44.97,0.31 L44.97,0.3 Z" id="Path" fill="#FFFFFF"></path>
                    <path d="M51.73,9.53 C52.75,3.93 56.05,0.02 61.27,0.02 C67.13,0.02 69.71,5.04 68.58,11.51 C67.56,17.11 64.23,21.05 59.04,21.05 C53.18,21.05 50.54,16.06 51.73,9.53 L51.73,9.53 Z M53.99,15.42 L65.51,3.93 C64.58,2.62 63.16,1.87 61.19,1.87 C57.1,1.87 54.69,5.21 53.85,9.76 C53.44,11.94 53.5,13.85 54,15.42 L53.99,15.42 Z M59.12,19.19 C63.06,19.19 65.59,16.03 66.46,11.24 C66.84,9.12 66.81,7.15 66.31,5.58 L54.77,17.1 C55.7,18.41 57.15,19.19 59.12,19.19 L59.12,19.19 Z" id="Shape" fill="#FFFFFF"></path>
                    <polygon id="Path" fill="#FFFFFF" points="96.07 12.6 95.75 14.4 82.09 14.4 82.44 12.6"></polygon>
                    <path d="M117.68,0.3 L122.09,0.3 L118.09,20.75 L115.91,20.75 L119.48,2.48 L120.15,0.94 L119.51,0.94 C118.32,5.38 116.17,9.67 110.92,11.3 L110.54,9.36 C114.77,7.79 116.78,4.26 117.68,0.31 L117.68,0.3 Z" id="Path" fill="#FFFFFF"></path>
                    <path d="M123.45,13.53 L125.6,13.53 C125.14,17.47 128.18,19.24 131.49,19.24 C134.8,19.24 137.23,17.35 137.84,13.96 C138.54,9.96 136.1,7.98 132.68,7.98 C130.3,7.98 128.79,8.97 127.6,10.07 L124.9,8.04 L127.92,0.29 L141.21,0.29 L140.83,2.12 L129.37,2.12 L126.85,8.62 L127.31,8.97 C128.64,7.32 130.47,6.24 133.2,6.24 C137.61,6.24 140.94,9 139.9,14.3 C139.03,18.68 135.93,21.09 131.43,21.09 C126.93,21.09 122.93,18.51 123.45,13.52 L123.45,13.53 Z" id="Path" fill="#FFFFFF"></path>
                    <path d="M141.89,18.69 C141.95,17.41 143.02,16.4 144.33,16.4 C145.64,16.4 146.62,17.42 146.56,18.69 C146.5,20.02 145.37,21.04 144.09,21.04 C142.81,21.04 141.83,20.02 141.89,18.69 Z" id="Path" fill="#FFFFFF"></path>
                    <path d="M154.8,0.3 L159.21,0.3 L155.21,20.75 L153.03,20.75 L156.6,2.48 L157.27,0.94 L156.63,0.94 C155.44,5.38 153.29,9.67 148.04,11.3 L147.66,9.36 C151.89,7.79 153.9,4.26 154.8,0.31 L154.8,0.3 Z" id="Path" fill="#FFFFFF"></path>
                    <path d="M161.55,9.53 C162.57,3.93 165.87,0.02 171.09,0.02 C176.95,0.02 179.53,5.04 178.4,11.51 C177.38,17.11 174.05,21.05 168.86,21.05 C163,21.05 160.36,16.06 161.55,9.53 L161.55,9.53 Z M163.81,15.42 L175.33,3.93 C174.4,2.62 172.98,1.87 171.01,1.87 C166.92,1.87 164.51,5.21 163.67,9.76 C163.26,11.94 163.32,13.85 163.82,15.42 L163.81,15.42 Z M168.94,19.19 C172.88,19.19 175.41,16.03 176.28,11.24 C176.66,9.12 176.63,7.15 176.13,5.58 L164.59,17.1 C165.52,18.41 166.97,19.19 168.94,19.19 L168.94,19.19 Z" id="Shape" fill="#FFFFFF"></path>
                    <path d="M3.68,46.18 L5.96,46.18 L3.89,56.76 L2.77,56.76 L4.61,47.31 L4.96,46.52 L4.63,46.52 C4.01,48.81 2.9,51.03 0.19,51.88 L0,50.88 C2.19,50.07 3.22,48.24 3.69,46.2 L3.68,46.18 Z" id="Path" fill="#4D4D4D"></path>
                    <path d="M7.17,50.95 C7.7,48.05 9.4,46.03 12.11,46.03 C15.14,46.03 16.47,48.62 15.89,51.97 C15.37,54.86 13.64,56.9 10.96,56.9 C7.93,56.9 6.56,54.32 7.18,50.95 L7.17,50.95 Z M8.34,53.99 L14.3,48.05 C13.82,47.38 13.09,46.99 12.07,46.99 C9.95,46.99 8.71,48.71 8.28,51.07 C8.07,52.19 8.1,53.18 8.35,53.99 L8.34,53.99 Z M11,55.94 C13.04,55.94 14.34,54.31 14.79,51.83 C14.98,50.74 14.97,49.71 14.71,48.91 L8.74,54.86 C9.22,55.54 9.97,55.94 10.99,55.94 L11,55.94 Z" id="Shape" fill="#4D4D4D"></path>
                    <path d="M19.16,45.73 L20.27,45.73 L19.37,50.36 L19.01,51.17 L19.37,51.17 C19.89,49.97 20.93,49.19 22.31,49.19 C24.2,49.19 25.12,50.43 24.7,52.5 L23.89,56.75 L22.78,56.75 L23.6,52.49 C23.91,50.84 23.3,50.11 21.85,50.11 C20.4,50.11 19.18,51.38 18.82,53.23 L18.15,56.76 L17.04,56.76 L19.17,45.74 L19.16,45.73 Z" id="Path" fill="#4D4D4D"></path>
                    <polygon id="Path" fill="#4D4D4D" points="39.39 44.99 30.65 58.43 29.83 58.04 38.57 44.6 39.39 44.99"></polygon>
                    <path d="M49.05,46.03 C51.26,46.03 53.1,47.26 52.63,50.03 C52.03,53.66 48.09,55.53 43.8,55.67 L43.72,56 L44.59,55.79 L51.5,55.79 L51.33,56.75 L43.25,56.75 L43.63,54.8 C44.77,54.79 50.78,54.32 51.53,49.92 C51.87,47.91 50.78,46.96 49.05,46.96 C47.07,46.96 45.81,48.18 45.29,51.28 L44.17,51.28 C44.63,48.4 45.97,46.02 49.04,46.02 L49.05,46.03 Z" id="Path" fill="#4D4D4D"></path>
                    <path d="M54.41,50.95 C54.94,48.05 56.65,46.03 59.35,46.03 C62.38,46.03 63.71,48.62 63.13,51.97 C62.61,54.86 60.88,56.9 58.2,56.9 C55.17,56.9 53.8,54.32 54.42,50.95 L54.41,50.95 Z M55.58,53.99 L61.54,48.05 C61.06,47.38 60.33,46.99 59.31,46.99 C57.19,46.99 55.95,48.71 55.52,51.07 C55.31,52.19 55.34,53.18 55.59,53.99 L55.58,53.99 Z M58.24,55.94 C60.28,55.94 61.58,54.31 62.03,51.83 C62.22,50.74 62.21,49.71 61.95,48.91 L55.98,54.86 C56.46,55.54 57.21,55.94 58.23,55.94 L58.24,55.94 Z" id="Shape" fill="#4D4D4D"></path>
                    <path d="M66.39,45.73 L67.5,45.73 L66.6,50.36 L66.24,51.17 L66.6,51.17 C67.12,49.97 68.16,49.19 69.54,49.19 C71.43,49.19 72.35,50.43 71.93,52.5 L71.12,56.75 L70.01,56.75 L70.83,52.49 C71.14,50.84 70.53,50.11 69.08,50.11 C67.63,50.11 66.41,51.38 66.05,53.23 L65.38,56.76 L64.27,56.76 L66.4,45.74 L66.39,45.73 Z" id="Path" fill="#4D4D4D"></path>
                </g>
                <g id="Group" transform="translate(301.550000, 303.440000)" fill="#FFFFFF">
                    <polygon id="Path" points="2.06 0.45 8.93 0.45 8.73 1.41 2.99 1.41 2.2 5.43 7.22 5.43 7.04 6.39 2.02 6.39 1.11 11.02 0 11.02 2.07 0.45"></polygon>
                    <path d="M10.73,3.59 L14.79,3.59 L14.59,4.54 L10.65,4.54 L9.39,11.03 L8.28,11.03 L9.54,4.58 C9.66,3.91 10.04,3.59 10.73,3.59 Z" id="Path"></path>
                    <path d="M14.45,10.08 L16.5,10.08 L17.58,4.53 L16.1,4.53 L16.28,3.58 L18.02,3.58 C18.53,3.58 18.74,3.82 18.63,4.39 L17.54,10.08 L19.61,10.08 L19.43,11.02 L14.27,11.02 L14.45,10.08 Z M18.68,0.29 C19.22,0.29 19.63,0.72 19.57,1.25 C19.53,1.79 19.03,2.22 18.49,2.22 C17.95,2.22 17.56,1.79 17.61,1.25 C17.67,0.72 18.15,0.29 18.69,0.29 L18.68,0.29 Z" id="Shape"></path>
                    <path d="M23.12,5.68434189e-14 L24.23,5.68434189e-14 L23.38,4.39 L23.03,5.22 L23.38,5.22 C23.84,4.18 24.85,3.41 26.32,3.41 C28.55,3.41 29.98,5.18 29.5,7.67 C29.1,9.72 27.61,11.16 25.63,11.16 C24.12,11.16 22.8,10.34 22.69,8.76 L22.38,8.76 L22.38,9.52 C22.38,9.52 22.09,11.02 22.09,11.02 L20.98,11.02 L23.12,5.68434189e-14 L23.12,5.68434189e-14 Z M25.47,10.2 C26.99,10.2 28.07,9.33 28.39,7.55 C28.8,5.4 27.67,4.34 25.93,4.34 C24.33,4.34 23.18,5.26 22.87,6.96 C22.43,9.22 23.87,10.2 25.46,10.2 L25.47,10.2 Z" id="Shape"></path>
                    <path d="M35.36,3.44 C37.73,3.44 39.15,5.18 39.02,7.31 C38.9,9.44 37.28,11.18 34.91,11.18 C32.54,11.18 31.1,9.44 31.24,7.31 C31.36,5.18 32.98,3.44 35.36,3.44 Z M34.97,10.23 C36.78,10.23 37.82,8.88 37.91,7.31 C38,5.74 37.12,4.39 35.3,4.39 C33.48,4.39 32.43,5.74 32.34,7.31 C32.24,8.89 33.13,10.23 34.96,10.23 L34.97,10.23 Z" id="Shape"></path>
                    <path d="M40.75,7.83 L41.56,3.58 L42.67,3.58 L41.84,7.84 C41.51,9.49 42.14,10.22 43.59,10.22 C45.04,10.22 46.26,8.95 46.62,7.1 L47.3,3.58 L48.41,3.58 L46.97,11.02 L45.86,11.02 L46.07,9.98 L46.43,9.16 L46.07,9.16 C45.55,10.37 44.53,11.14 43.13,11.14 C41.24,11.14 40.34,9.89 40.75,7.83 Z" id="Path"></path>
                    <path d="M51.44,3.59 L55.5,3.59 L55.3,4.54 L51.36,4.54 L50.1,11.03 L48.99,11.03 L50.25,4.58 C50.37,3.91 50.75,3.59 51.44,3.59 Z" id="Path"></path>
                    <path d="M55.74,6.96 C56.15,4.89 57.63,3.45 59.61,3.45 C61.11,3.45 62.44,4.28 62.55,5.87 L62.86,5.87 L62.84,5.09 L63.14,3.59 L64.26,3.59 L62.81,11.03 L62.42,13.04 C62.3,13.6 61.96,13.91 61.27,13.91 L55.72,13.91 L55.9,12.97 L61.33,12.97 L61.71,11.03 L61.86,10.2 L62.2,9.39 L61.86,9.39 C61.39,10.43 60.39,11.21 58.92,11.21 C56.67,11.21 55.26,9.44 55.74,6.96 L55.74,6.96 Z M59.3,10.27 C60.9,10.27 62.04,9.35 62.36,7.65 C62.8,5.39 61.36,4.41 59.77,4.41 C58.18,4.41 57.18,5.28 56.85,7.06 C56.44,9.21 57.57,10.27 59.31,10.27 L59.3,10.27 Z" id="Shape"></path>
                </g>
                <g id="Group" transform="translate(731.940000, 299.450000)" fill="#FFFFFF">
                    <path d="M5.8,0.01 C8.01,0.01 9.85,1.24 9.38,4.01 C8.78,7.64 4.84,9.51 0.55,9.65 L0.47,9.98 L1.34,9.77 L8.25,9.77 L8.08,10.73 L1.13686838e-13,10.73 L0.38,8.78 C1.52,8.77 7.53,8.3 8.28,3.9 C8.62,1.89 7.53,0.94 5.8,0.94 C3.82,0.94 2.56,2.16 2.04,5.26 L0.92,5.26 C1.38,2.38 2.72,5.68434189e-14 5.79,5.68434189e-14 L5.8,0.01 Z" id="Path"></path>
                    <path d="M11.16,4.93 C11.69,2.03 13.39,0.01 16.1,0.01 C19.13,0.01 20.46,2.6 19.88,5.95 C19.36,8.84 17.63,10.88 14.95,10.88 C11.92,10.88 10.55,8.3 11.17,4.93 L11.16,4.93 Z M12.33,7.97 L18.29,2.03 C17.81,1.36 17.08,0.97 16.06,0.97 C13.94,0.97 12.7,2.69 12.27,5.05 C12.06,6.17 12.09,7.16 12.34,7.97 L12.33,7.97 Z M14.99,9.92 C17.03,9.92 18.33,8.29 18.78,5.81 C18.97,4.72 18.96,3.69 18.7,2.89 L12.73,8.84 C13.21,9.52 13.96,9.92 14.98,9.92 L14.99,9.92 Z" id="Shape"></path>
                    <path d="M26.65,0.01 C28.86,0.01 30.7,1.24 30.23,4.01 C29.63,7.64 25.69,9.51 21.4,9.65 L21.32,9.98 L22.19,9.77 L29.1,9.77 L28.93,10.73 L20.85,10.73 L21.23,8.78 C22.37,8.77 28.38,8.3 29.13,3.9 C29.47,1.89 28.38,0.94 26.65,0.94 C24.67,0.94 23.41,2.16 22.89,5.26 L21.77,5.26 C22.23,2.38 23.57,5.68434189e-14 26.64,5.68434189e-14 L26.65,0.01 Z" id="Path"></path>
                    <path d="M35.08,9.94 C37.04,9.94 38.06,9.08 38.2,7.61 C38.3,6.23 37.54,5.61 36.3,5.61 L35.05,5.61 L35.22,4.68 L36.89,4.68 C38.24,4.68 38.87,3.99 39,3 C39.14,1.88 38.55,0.94 36.5,0.94 C34.45,0.94 33.47,1.83 33.2,3.6 L32.08,3.6 C32.37,1.27 33.91,5.68434189e-14 36.6,5.68434189e-14 C39.29,5.68434189e-14 40.27,1.17 40.17,2.77 C40.09,4.02 39.32,4.93 37.65,5.04 L37.59,5.37 C38.69,5.64 39.47,6.32 39.32,7.77 C39.14,9.61 37.68,10.87 35.05,10.87 C32.42,10.87 30.93,9.6 31.34,6.69 L32.46,6.69 C32.08,9.04 33.09,9.93 35.1,9.93 L35.08,9.94 Z" id="Path"></path>
                </g>
            </g>
        </g>
    </g>
</svg>