<?xml version="1.0" encoding="UTF-8"?>
<svg width="104px" height="102px" viewBox="0 0 104 102" version="1.1" xmlns="http://www.w3.org/2000/svg" xmlns:xlink="http://www.w3.org/1999/xlink">
    <title>logo-fribourg</title>
    <g id="Page-1" stroke="none" stroke-width="1" fill="none" fill-rule="evenodd">
        <g id="desktop" transform="translate(-1383.000000, -3078.000000)" fill="#FFFFFF">
            <g id="FOOTER" transform="translate(-13.000000, 3010.000000)">
                <g id="right" transform="translate(569.000000, 0.000000)">
                    <g id="logos" transform="translate(88.000000, 68.000000)">
                        <g id="logo-fribourg" transform="translate(739.607400, 0.000000)">
                            <path d="M0.5607,48.7619026 L0.5607,50.8639026 C6.7247,49.3219026 13.3097,45.5399026 16.9527,42.1769026 C19.3337,39.9359026 21.4357,37.2739026 23.1167,34.1919026 C23.1167,34.1919026 23.2567,34.0509026 23.2567,33.9109026 C24.7977,31.1089026 25.9187,27.7469026 26.7597,23.8239026 C29.0007,13.0359026 25.6387,2.24890262 24.9387,0.847902619 C24.0977,-0.133097381 22.9767,0.00690261936 22.1367,0.00690261936 L21.5757,0.00690261936 L0.5607,0.00690261936 L0.5607,24.6649026 L16.6727,24.6649026 L17.0927,24.6649026 C17.6527,24.8049026 18.0737,25.0849026 18.0737,25.6449026 L18.0737,26.0659026 C18.0737,30.9689026 15.6917,40.6359026 1.8217,46.8009026 L0.5607,47.3609026 L0.5607,48.7619026 Z" id="Fill-427"></path>
                            <polygon id="Fill-428" points="0.5607 62.6318026 6.0247 62.6318026 6.0247 63.4728026 1.6817 63.4728026 1.6817 65.9938026 5.7447 65.9938026 5.7447 66.8348026 1.6817 66.8348026 1.6817 69.4968026 6.0247 69.4968026 6.0247 70.3378026 0.5607 70.3378026"></polygon>
                            <polygon id="Fill-429" points="9.247 63.4724026 6.725 63.4724026 6.725 62.6314026 13.03 62.6314026 13.03 63.4724026 10.368 63.4724026 10.368 70.4774026 9.247 70.4774026"></polygon>
                            <path d="M14.2906,67.2551026 L16.9526,67.2551026 L15.6916,63.6121026 L14.2906,67.2551026 Z M15.1316,62.6321026 L16.2516,62.6321026 L19.3346,70.4771026 L18.2136,70.4771026 L17.3726,68.0961026 L14.0106,68.0961026 L13.1696,70.4771026 L12.0486,70.4771026 L15.1316,62.6321026 Z" id="Fill-430"></path>
                            <polygon id="Fill-431" points="21.1556 63.4724026 18.4936 63.4724026 18.4936 62.6314026 24.7986 62.6314026 24.7986 63.4724026 22.1366 63.4724026 22.1366 70.4774026 21.1556 70.4774026"></polygon>
                            <path d="M30.122,69.6368026 L31.803,69.6368026 C32.504,69.6368026 34.465,69.4968026 34.465,66.5548026 C34.465,64.7328026 33.765,63.6128026 31.803,63.6128026 L29.982,63.6128026 L29.982,69.6368026 L30.122,69.6368026 Z M29.141,62.6318026 L31.803,62.6318026 C34.185,62.6318026 35.586,63.8928026 35.586,66.4148026 C35.586,69.0768026 34.465,70.4778026 31.803,70.4778026 L29.141,70.4778026 L29.141,62.6318026 Z" id="Fill-432"></path>
                            <polygon id="Fill-433" points="36.9869 62.6318026 42.4509 62.6318026 42.4509 63.4728026 38.1079 63.4728026 38.1079 65.9938026 42.1709 65.9938026 42.1709 66.8348026 38.1079 66.8348026 38.1079 69.4968026 42.4509 69.4968026 42.4509 70.3378026 36.9869 70.3378026"></polygon>
                            <polygon id="Fill-434" points="47.2142 62.6318026 52.3982 62.6318026 52.3982 63.4728026 48.3352 63.4728026 48.3352 65.9938026 51.9772 65.9938026 51.9772 66.8348026 48.3352 66.8348026 48.3352 70.4778026 47.3542 70.4778026 47.3542 62.6318026"></polygon>
                            <path d="M56.8812,66.2744026 C57.8622,66.2744026 58.7022,65.9944026 58.7022,64.8734026 C58.7022,64.1724026 58.2822,63.4724026 57.3012,63.4724026 L54.7792,63.4724026 L54.7792,66.1344026 L56.8812,66.1344026 L56.8812,66.2744026 Z M53.6592,62.6314026 L57.3012,62.6314026 C58.7022,62.6314026 59.6832,63.4724026 59.6832,64.7334026 C59.6832,65.7144026 59.2632,66.4144026 58.2822,66.6944026 C59.2632,66.8344026 59.4032,67.5354026 59.4032,68.3764026 C59.4032,69.0764026 59.4032,70.0574026 59.8232,70.4774026 L58.7022,70.4774026 C58.4222,70.1974026 58.5622,69.3564026 58.4222,68.5164026 C58.2822,67.8154026 58.1422,67.1154026 57.1612,67.1154026 L54.7792,67.1154026 L54.7792,70.4774026 L53.7992,70.4774026 L53.7992,62.6314026 L53.6592,62.6314026 Z" id="Fill-435"></path>
                            <polygon id="Fill-436" points="61.5045 70.4776026 62.4855 70.4776026 62.4855 62.6316026 61.5045 62.6316026"></polygon>
                            <path d="M65.5673,69.6368026 L68.2293,69.6368026 C69.0703,69.6368026 69.6303,69.0768026 69.6303,68.2358026 C69.6303,67.2548026 68.7893,66.9748026 67.9493,66.9748026 L65.5673,66.9748026 L65.5673,69.6368026 Z M65.5673,65.9938026 L67.6693,65.9938026 C68.7893,65.9938026 69.3503,65.5738026 69.3503,64.7328026 C69.3503,63.6128026 68.6493,63.4728026 67.6693,63.4728026 L65.5673,63.4728026 L65.5673,65.9938026 Z M64.4463,62.6318026 L67.2483,62.6318026 C67.9493,62.6318026 68.7893,62.6318026 69.3503,62.9118026 C69.9103,63.1918026 70.3303,63.7528026 70.3303,64.5928026 C70.3303,65.4338026 69.9103,65.9938026 69.2103,66.4148026 C70.1903,66.5548026 70.7513,67.3948026 70.7513,68.2358026 C70.7513,69.3568026 69.9103,70.4778026 68.3693,70.4778026 L64.5863,70.4778026 L64.5863,62.6318026 L64.4463,62.6318026 Z" id="Fill-437"></path>
                            <path d="M75.5145,69.7769026 C77.4755,69.7769026 78.1765,68.0959026 78.1765,66.5549026 C78.1765,65.0139026 77.3355,63.3319026 75.5145,63.3319026 C73.5535,63.3319026 72.8525,65.0139026 72.8525,66.5549026 C72.8525,68.0959026 73.5535,69.7769026 75.5145,69.7769026 M75.5145,62.4919026 C78.0365,62.4919026 79.2975,64.4529026 79.2975,66.5549026 C79.2975,68.6559026 78.0365,70.6179026 75.5145,70.6179026 C72.9925,70.6179026 71.7315,68.6559026 71.7315,66.5549026 C71.7315,64.4529026 72.9925,62.4919026 75.5145,62.4919026" id="Fill-438"></path>
                            <path d="M87.0028,67.6754026 C87.0028,69.6364026 85.8818,70.7574026 83.9208,70.7574026 C81.9588,70.7574026 80.6978,69.7774026 80.6978,67.6754026 L80.6978,62.6314026 L81.6788,62.6314026 L81.6788,67.6754026 C81.6788,69.0764026 82.5198,69.7774026 83.7808,69.7774026 C85.0418,69.7774026 85.8818,69.0764026 85.8818,67.6754026 L85.8818,62.6314026 L87.0028,62.6314026 L87.0028,67.6754026 Z" id="Fill-439"></path>
                            <path d="M92.0463,66.2744026 C93.0273,66.2744026 93.8673,65.9944026 93.8673,64.8734026 C93.8673,64.1724026 93.4473,63.4724026 92.4663,63.4724026 L89.9443,63.4724026 L89.9443,66.1344026 L92.0463,66.1344026 L92.0463,66.2744026 Z M88.8243,62.6314026 L92.6063,62.6314026 C94.0073,62.6314026 94.9883,63.4724026 94.9883,64.7334026 C94.9883,65.7144026 94.5683,66.4144026 93.5873,66.6944026 C94.5683,66.8344026 94.7083,67.5354026 94.7083,68.3764026 C94.7083,69.0764026 94.7083,70.0574026 95.1283,70.4774026 L94.0073,70.4774026 C93.7273,70.1974026 93.8673,69.3564026 93.7273,68.5164026 C93.5873,67.8154026 93.4473,67.1154026 92.4663,67.1154026 L89.9443,67.1154026 L89.9443,70.4774026 L88.9643,70.4774026 L88.9643,62.6314026 L88.8243,62.6314026 Z" id="Fill-440"></path>
                            <path d="M102.4138,69.4967026 C101.8538,70.3377026 100.8728,70.6177026 99.8918,70.6177026 C97.5098,70.6177026 96.1088,68.6557026 96.1088,66.6947026 C96.1088,64.4527026 97.3698,62.4917026 99.8918,62.4917026 C101.5728,62.4917026 102.9738,63.1917026 103.2548,65.1537026 L102.2738,65.1537026 C102.1338,64.0327026 101.1528,63.4727026 99.8918,63.4727026 C97.9308,63.4727026 97.2298,65.1537026 97.2298,66.8347026 C97.2298,68.5157026 98.2108,69.9167026 99.8918,69.9167026 C101.5728,69.9167026 102.4138,68.7957026 102.4138,67.3947026 L99.8918,67.3947026 L99.8918,66.5547026 L103.2548,66.5547026 L103.2548,70.6177026 L102.5538,70.6177026 L102.4138,69.4967026 Z" id="Fill-441"></path>
                            <path d="M5.044,80.5647026 C4.904,79.4437026 4.203,79.0237026 3.083,79.0237026 C2.242,79.0237026 1.261,79.3037026 1.261,80.4247026 C1.261,81.4057026 2.522,81.5457026 3.783,81.8257026 C5.044,82.1057026 6.305,82.5257026 6.305,84.0677026 C6.305,85.7487026 4.624,86.4487026 3.223,86.4487026 C1.401,86.4487026 0,85.6087026 0,83.6467026 L0.981,83.6467026 C0.981,84.9077026 2.102,85.4687026 3.223,85.4687026 C4.203,85.4687026 5.184,85.1877026 5.184,84.0677026 C5.184,82.9467026 3.923,82.8067026 2.662,82.5257026 C1.401,82.2457026 0.14,81.8257026 0.14,80.4247026 C0.14,78.8837026 1.541,78.1827026 2.942,78.1827026 C4.484,78.1827026 5.744,78.8837026 5.885,80.7047026 L5.044,80.7047026 L5.044,80.5647026 Z" id="Fill-442"></path>
                            <polygon id="Fill-443" points="9.247 79.1637026 6.585 79.1637026 6.585 78.3227026 12.89 78.3227026 12.89 79.1637026 10.228 79.1637026 10.228 86.1687026 9.247 86.1687026"></polygon>
                            <path d="M14.2906,82.9464026 L16.9526,82.9464026 L15.6916,79.3034026 L14.2906,82.9464026 Z M15.1316,78.3234026 L16.2516,78.3234026 L19.3346,86.1684026 L18.2136,86.1684026 L17.3726,83.7874026 L14.0106,83.7874026 L13.1696,86.1684026 L12.0486,86.1684026 L15.1316,78.3234026 Z" id="Fill-444"></path>
                            <path d="M21.5759,82.9464026 L24.2379,82.9464026 L22.9769,79.3034026 L21.5759,82.9464026 Z M22.4169,78.3234026 L23.5369,78.3234026 L26.6199,86.1684026 L25.4989,86.1684026 L24.6579,83.7874026 L21.2959,83.7874026 L20.4549,86.1684026 L19.3339,86.1684026 L22.4169,78.3234026 Z" id="Fill-445"></path>
                            <polygon id="Fill-446" points="28.4407 79.1637026 25.7787 79.1637026 25.7787 78.3227026 32.0837 78.3227026 32.0837 79.1637026 29.4217 79.1637026 29.4217 86.1687026 28.4407 86.1687026"></polygon>
                            <polygon id="Fill-447" points="36.4265 78.3231026 41.6105 78.3231026 41.6105 79.1641026 37.5475 79.1641026 37.5475 81.6851026 41.1895 81.6851026 41.1895 82.5261026 37.5475 82.5261026 37.5475 86.1691026 36.5665 86.1691026 36.5665 78.3231026"></polygon>
                            <path d="M46.0935,81.9657026 C47.0745,81.9657026 47.9145,81.6857026 47.9145,80.5647026 C47.9145,79.8637026 47.4945,79.1637026 46.5135,79.1637026 L43.9915,79.1637026 L43.9915,81.8257026 L46.0935,81.8257026 L46.0935,81.9657026 Z M42.8715,78.3227026 L46.5135,78.3227026 C47.9145,78.3227026 48.8955,79.1637026 48.8955,80.4247026 C48.8955,81.4057026 48.4755,82.1057026 47.4945,82.3857026 C48.3355,82.5257026 48.6155,83.2267026 48.6155,84.0677026 C48.6155,84.7677026 48.6155,85.7487026 49.0355,86.1687026 L47.9145,86.1687026 C47.6345,85.8887026 47.7745,85.0477026 47.6345,84.2077026 C47.4945,83.5067026 47.3545,82.8067026 46.3735,82.8067026 L43.8515,82.8067026 L43.8515,86.1687026 L42.8715,86.1687026 L42.8715,78.3227026 Z" id="Fill-448"></path>
                            <polygon id="Fill-449" points="50.5766 78.3231026 56.0406 78.3231026 56.0406 79.1641026 51.6976 79.1641026 51.6976 81.6851026 55.7606 81.6851026 55.7606 82.5261026 51.6976 82.5261026 51.6976 85.1881026 56.0406 85.1881026 56.0406 86.0291026 50.5766 86.0291026"></polygon>
                            <polygon id="Fill-450" points="57.5815 86.1686026 58.5625 86.1686026 58.5625 78.3226026 57.5815 78.3226026"></polygon>
                            <path d="M61.6446,85.3281026 L64.3066,85.3281026 C65.1466,85.3281026 65.7076,84.7681026 65.7076,83.9271026 C65.7076,82.9461026 64.8666,82.6661026 64.0266,82.6661026 L61.6446,82.6661026 L61.6446,85.3281026 Z M61.6446,81.6851026 L63.7456,81.6851026 C64.8666,81.6851026 65.4276,81.2651026 65.4276,80.4241026 C65.4276,79.3041026 64.7266,79.1641026 63.7456,79.1641026 L61.6446,79.1641026 L61.6446,81.6851026 Z M60.5236,78.3231026 L63.3256,78.3231026 C64.0266,78.3231026 64.8666,78.3231026 65.4276,78.6031026 C65.9876,78.8831026 66.4076,79.4441026 66.4076,80.2841026 C66.4076,81.1251026 65.9876,81.6851026 65.2876,82.1061026 C66.2676,82.2461026 66.8286,83.0861026 66.8286,83.9271026 C66.8286,85.0481026 65.9876,86.1691026 64.4466,86.1691026 L60.6636,86.1691026 L60.6636,78.3231026 L60.5236,78.3231026 Z" id="Fill-451"></path>
                            <path d="M74.5338,83.3667026 C74.5338,85.3277026 73.4128,86.4487026 71.4518,86.4487026 C69.4898,86.4487026 68.2298,85.4687026 68.2298,83.3667026 L68.2298,78.3227026 L69.2098,78.3227026 L69.2098,83.3667026 C69.2098,84.7677026 70.0508,85.4687026 71.3118,85.4687026 C72.5728,85.4687026 73.4128,84.7677026 73.4128,83.3667026 L73.4128,78.3227026 L74.3938,78.3227026 L74.3938,83.3667026 L74.5338,83.3667026 Z" id="Fill-452"></path>
                            <path d="M79.5775,81.9657026 C80.5585,81.9657026 81.3985,81.6857026 81.3985,80.5647026 C81.3985,79.8637026 80.9785,79.1637026 79.9975,79.1637026 L77.4755,79.1637026 L77.4755,81.8257026 L79.5775,81.8257026 L79.5775,81.9657026 Z M76.3555,78.3227026 L79.9975,78.3227026 C81.3985,78.3227026 82.3795,79.1637026 82.3795,80.4247026 C82.3795,81.4057026 81.9595,82.1057026 80.9785,82.3857026 C81.8195,82.5257026 82.0995,83.2267026 82.0995,84.0677026 C82.0995,84.7677026 82.0995,85.7487026 82.5195,86.1687026 L81.3985,86.1687026 C81.1185,85.8887026 81.2585,85.0477026 81.1185,84.2077026 C80.9785,83.5067026 80.8385,82.8067026 79.8575,82.8067026 L77.3355,82.8067026 L77.3355,86.1687026 L76.3555,86.1687026 L76.3555,78.3227026 Z" id="Fill-453"></path>
                            <path d="M89.9448,85.1880026 C89.3848,86.0290026 88.4038,86.3090026 87.4228,86.3090026 C85.0418,86.3090026 83.6408,84.3470026 83.6408,82.3860026 C83.6408,80.1440026 84.9008,78.1830026 87.4228,78.1830026 C89.1038,78.1830026 90.5048,78.8830026 90.7858,80.8450026 L89.8048,80.8450026 C89.6648,79.7240026 88.6838,79.1640026 87.4228,79.1640026 C85.4618,79.1640026 84.7608,80.8450026 84.7608,82.5260026 C84.7608,84.2070026 85.7418,85.6080026 87.4228,85.6080026 C89.1038,85.6080026 89.9448,84.4880026 89.9448,83.0870026 L87.4228,83.0870026 L87.4228,82.2460026 L90.7858,82.2460026 L90.7858,86.3090026 L90.0848,86.3090026 L89.9448,85.1880026 Z" id="Fill-454"></path>
                            <polygon id="Fill-455" points="5.4643 101.859903 4.7633 101.859903 3.5033 97.3769026 2.2423 101.859903 1.5413 101.859903 0.1403 96.5359026 0.8413 96.5359026 1.9613 100.878903 3.2223 96.3959026 4.0633 96.3959026 5.0443 100.878903 6.1643 96.3959026 6.8653 96.3959026"></polygon>
                            <polygon id="Fill-456" points="12.6094 101.859903 11.9084 101.859903 10.6484 97.3769026 9.3874 101.859903 8.6864 101.859903 7.2854 96.5359026 7.9864 96.5359026 9.1064 100.878903 10.3674 96.3959026 11.2084 96.3959026 12.1894 100.878903 13.3094 96.3959026 14.0104 96.3959026"></polygon>
                            <polygon id="Fill-457" points="19.7546 101.859903 19.0536 101.859903 17.7936 97.3769026 16.5326 101.859903 15.8316 101.859903 14.4306 96.5359026 15.1316 96.5359026 16.2516 101.018903 17.5126 96.5359026 18.3536 96.5359026 19.4746 101.018903 20.5956 96.5359026 21.1556 96.5359026"></polygon>
                            <polygon id="Fill-458" points="21.4355 101.860603 22.2765 101.860603 22.2765 101.019603 21.4355 101.019603"></polygon>
                            <polygon id="Fill-459" points="23.6773 96.3960026 27.1803 96.3960026 27.1803 96.9560026 24.3783 96.9560026 24.3783 98.6380026 26.8993 98.6380026 26.8993 99.1980026 24.3783 99.1980026 24.3783 101.720003 23.6773 101.720003"></polygon>
                            <path d="M30.4022,98.9178026 C31.1022,98.9178026 31.6632,98.7778026 31.6632,97.9368026 C31.6632,97.3768026 31.3832,96.9568026 30.6822,96.9568026 L28.8612,96.9568026 L28.8612,98.7778026 L30.4022,98.7778026 L30.4022,98.9178026 Z M28.1602,96.3958026 L30.6822,96.3958026 C31.6632,96.3958026 32.3632,96.9568026 32.3632,97.7968026 C32.3632,98.4978026 32.0832,98.9178026 31.3832,99.1978026 C31.9432,99.3378026 32.0832,99.7588026 32.2232,100.318803 C32.2232,100.878803 32.2232,101.439803 32.5032,101.859803 L31.6632,101.859803 C31.5232,101.579803 31.5232,101.019803 31.5232,100.598803 C31.3832,100.038803 31.3832,99.6188026 30.6822,99.6188026 L29.0012,99.6188026 L29.0012,101.859803 L28.1602,101.859803 L28.1602,96.3958026 Z" id="Fill-460"></path>
                            <polygon id="Fill-461" points="33.4845 101.860603 34.3255 101.860603 34.3255 101.019603 33.4845 101.019603"></polygon>
                            <path d="M39.5087,98.0772026 C39.3687,97.3762026 38.8077,96.9562026 37.9677,96.9562026 C36.7067,96.9562026 36.1467,98.0772026 36.1467,99.1982026 C36.1467,100.459203 36.7067,101.439203 37.9677,101.439203 C38.9487,101.439203 39.5087,100.739203 39.5087,99.8982026 L40.2087,99.8982026 C40.0687,101.299203 39.2287,102.000203 37.8277,102.000203 C36.1467,102.000203 35.3057,100.739203 35.3057,99.1982026 C35.3057,97.6572026 36.1467,96.3962026 37.8277,96.3962026 C38.9487,96.3962026 39.9287,96.9562026 40.0687,98.0772026 L39.5087,98.0772026 Z" id="Fill-462"></path>
                            <polygon id="Fill-463" points="41.33 96.3960026 42.03 96.3960026 42.03 98.6380026 44.832 98.6380026 44.832 96.3960026 45.533 96.3960026 45.533 101.720003 44.832 101.720003 44.832 99.1980026 42.03 99.1980026 42.03 101.720003 41.33 101.720003"></polygon>
                        </g>
                    </g>
                </g>
            </g>
        </g>
    </g>
</svg>