<?xml version="1.0" encoding="UTF-8"?>
<svg width="54px" height="50px" viewBox="0 0 54 50" version="1.1" xmlns="http://www.w3.org/2000/svg" xmlns:xlink="http://www.w3.org/1999/xlink">
    <title>Group 24</title>
    <defs>
        <polygon id="path-1" points="0 1079.854 1930.466 1079.854 1930.466 0 0 0"></polygon>
    </defs>
    <g id="Page-1" stroke="none" stroke-width="1" fill="none" fill-rule="evenodd">
        <g id="Extra-Large" transform="translate(-922.000000, -121.000000)">
            <g id="Group-32" transform="translate(-1500.000000, 0.000000)">
                <g id="Group-24" transform="translate(1500.000000, 0.000000)">
                    <polygon id="Fill-4" fill="#1A1A1A" points="945.8463 121.0868 955.7403 121.0868 955.7403 124.3848 959.0383 124.3848 959.0383 127.6828 962.3363 127.6828 962.3363 130.9808 965.6343 130.9808 965.6343 134.2788 968.9323 134.2788 968.9323 137.5768 972.2303 137.5768 972.2303 140.8748 975.5283 140.8748 975.5283 150.7688 972.2303 150.7688 972.2303 170.5558 926.0583 170.5558 926.0583 150.7688 922.7603 150.7688 922.7603 144.1728 926.0583 144.1728 926.0583 140.8748 929.3563 140.8748 929.3563 137.5768 932.6543 137.5768 932.6543 134.2788 935.9523 134.2788 935.9523 130.9808 939.2503 130.9808 939.2503 127.6828 942.5483 127.6828 942.5483 124.3848 945.8463 124.3848"></polygon>
                    <mask id="mask-2" fill="white">
                        <use xlink:href="#path-1"></use>
                    </mask>
                    <g id="Clip-9"></g>
                    <polygon id="Fill-8" fill="#FFFFFF" mask="url(#mask-2)" points="949.144 134.279 952.442 134.279 952.442 130.981 949.144 130.981"></polygon>
                    <polygon id="Fill-10" fill="#FFFFFF" mask="url(#mask-2)" points="945.846 137.577 949.144 137.577 949.144 134.279 945.846 134.279"></polygon>
                    <polygon id="Fill-11" fill="#1A1A1A" mask="url(#mask-2)" points="949.144 137.577 952.442 137.577 952.442 134.279 949.144 134.279"></polygon>
                    <polygon id="Fill-12" fill="#FFFFFF" mask="url(#mask-2)" points="952.442 137.577 955.74 137.577 955.74 134.279 952.442 134.279"></polygon>
                    <polygon id="Fill-13" fill="#FFFFFF" mask="url(#mask-2)" points="942.5483 137.5765 945.8463 137.5765 945.8463 144.1725 955.7403 144.1725 955.7403 137.5765 959.0383 137.5765 959.0383 140.8745 962.3363 140.8745 962.3363 144.1725 965.6343 144.1725 965.6343 147.4705 955.7403 147.4705 955.7403 167.2585 929.3563 167.2585 929.3563 150.7685 932.6543 150.7685 932.6543 163.9605 949.1443 163.9605 949.1443 147.4705 935.9523 147.4705 935.9523 144.1725 939.2503 144.1725 939.2503 140.8745 942.5483 140.8745"></polygon>
                    <polygon id="Fill-14" fill="#1A1A1A" mask="url(#mask-2)" points="945.8463 137.5765 949.1443 137.5765 949.1443 140.8745 952.4423 140.8745 952.4423 137.5765 955.7403 137.5765 955.7403 144.1725 945.8463 144.1725"></polygon>
                    <polygon id="Fill-15" fill="#FFFFFF" mask="url(#mask-2)" points="949.144 140.875 952.442 140.875 952.442 137.577 949.144 137.577"></polygon>
                    <polygon id="Fill-16" fill="#FFFFFF" mask="url(#mask-2)" points="965.634 167.258 968.932 167.258 968.932 147.47 965.634 147.47"></polygon>
                    <polygon id="Fill-18" fill="#FFFFFF" mask="url(#mask-2)" points="935.952 154.066 939.25 154.066 939.25 150.768 935.952 150.768"></polygon>
                    <polygon id="Fill-19" fill="#FFFFFF" mask="url(#mask-2)" points="942.548 154.066 945.846 154.066 945.846 150.768 942.548 150.768"></polygon>
                    <polygon id="Fill-20" fill="#FFFFFF" mask="url(#mask-2)" points="959.038 154.066 962.336 154.066 962.336 150.768 959.038 150.768"></polygon>
                    <polygon id="Fill-21" fill="#FFFFFF" mask="url(#mask-2)" points="935.952 160.662 939.25 160.662 939.25 157.364 935.952 157.364"></polygon>
                    <polygon id="Fill-22" fill="#FFFFFF" mask="url(#mask-2)" points="942.548 160.662 945.846 160.662 945.846 157.364 942.548 157.364"></polygon>
                    <polygon id="Fill-23" fill="#FFFFFF" mask="url(#mask-2)" points="959.038 167.258 962.336 167.258 962.336 157.364 959.038 157.364"></polygon>
                </g>
            </g>
        </g>
    </g>
</svg>