<?xml version="1.0" encoding="UTF-8"?>
<svg width="156px" height="152px" viewBox="0 0 156 152" version="1.1" xmlns="http://www.w3.org/2000/svg" xmlns:xlink="http://www.w3.org/1999/xlink">
    <title>micro-pixel</title>
    <g id="Page-1" stroke="none" stroke-width="1" fill="none" fill-rule="evenodd">
        <g id="desktop" transform="translate(-1510.000000, -1222.000000)" fill="#FFFFFF">
            <g id="MAIN" transform="translate(0.000000, 717.000000)">
                <g id="section-2---about" transform="translate(0.000000, 418.000000)">
                    <g id="emote" transform="translate(254.000000, 87.000000)">
                        <g id="micro-pixel" transform="translate(1256.000000, 0.000000)">
                            <polygon id="Fill-142" points="19.5005145 9.50025067 29.2507718 9.50025067 29.2507718 0 19.5005145 0"></polygon>
                            <polygon id="Fill-143" points="9.75025726 19.0005013 19.5005145 19.0005013 19.5005145 9.50025067 9.75025726 9.50025067"></polygon>
                            <polygon id="Fill-144" points="126.749228 19.0005013 136.499485 19.0005013 136.499485 9.50025067 126.749228 9.50025067"></polygon>
                            <polygon id="Fill-145" points="0 57.0005013 9.75025726 57.0005013 9.75025726 19.0005013 0 19.0005013"></polygon>
                            <polygon id="Fill-146" points="29.2497427 28.500752 39 28.500752 39 19.0005013 29.2497427 19.0005013"></polygon>
                            <polygon id="Fill-147" points="58.4998971 19.0004011 87.7496398 19.0004011 87.7496398 28.5006517 77.9993826 28.5006517 77.9993826 37.9998997 68.2501544 37.9998997 68.2501544 28.5006517 58.4998971 28.5006517"></polygon>
                            <polygon id="Fill-148" points="107.249743 28.500752 117 28.500752 117 19.0005013 107.249743 19.0005013"></polygon>
                            <polygon id="Fill-149" points="136.499485 28.500752 146.249743 28.500752 146.249743 19.0005013 136.499485 19.0005013"></polygon>
                            <polygon id="Fill-150" points="19.5005145 66.4997493 29.2507718 66.4997493 29.2507718 28.4997493 19.5005145 28.4997493"></polygon>
                            <polygon id="Fill-151" points="48.7499485 28.5002507 58.5002058 28.5002507 58.5002058 38.0005013 68.249434 38.0005013 68.249434 47.4997493 58.5002058 47.4997493 58.5002058 57 68.249434 57 68.249434 66.5002507 77.9996913 66.5002507 77.9996913 57 87.7499485 57 87.7499485 47.4997493 77.9996913 47.4997493 77.9996913 38.0005013 87.7499485 38.0005013 87.7499485 28.5002507 97.5002058 28.5002507 97.5002058 66.5002507 87.7499485 66.5002507 87.7499485 85.4997493 97.5002058 85.4997493 97.5002058 95 107.249434 95 107.249434 104.500251 97.5002058 104.500251 97.5002058 113.999499 107.249434 113.999499 107.249434 123.499749 97.5002058 123.499749 97.5002058 142.500251 87.7499485 142.500251 87.7499485 133 68.249434 133 68.249434 123.499749 87.7499485 123.499749 87.7499485 113.999499 68.249434 113.999499 68.249434 104.500251 87.7499485 104.500251 87.7499485 95 48.7499485 95 48.7499485 85.4997493 58.5002058 85.4997493 58.5002058 66.5002507 48.7499485 66.5002507"></polygon>
                            <polygon id="Fill-152" points="117 57.0005013 126.750257 57.0005013 126.750257 28.500752 117 28.500752"></polygon>
                            <polygon id="Fill-153" points="146.249743 66.4997493 156 66.4997493 156 28.4997493 146.249743 28.4997493"></polygon>
                            <polygon id="Fill-154" points="68.2497427 57.0005013 78 57.0005013 78 47.5002507 68.2497427 47.5002507"></polygon>
                            <polygon id="Fill-155" points="29.2497427 76 39 76 39 66.4997493 29.2497427 66.4997493"></polygon>
                            <polygon id="Fill-156" points="107.249743 76 117 76 117 66.4997493 107.249743 66.4997493"></polygon>
                            <polygon id="Fill-157" points="136.499485 76 146.249743 76 146.249743 66.4997493 136.499485 66.4997493"></polygon>
                            <polygon id="Fill-158" points="126.749228 85.5002507 136.499485 85.5002507 136.499485 76 126.749228 76"></polygon>
                            <polygon id="Fill-159" points="39 104.499749 48.7502573 104.499749 48.7502573 94.9994987 39 94.9994987"></polygon>
                            <polygon id="Fill-160" points="29.2497427 132.999499 39 132.999499 39 104.499749 29.2497427 104.499749"></polygon>
                            <polygon id="Fill-161" points="107.249743 114 117 114 117 104.499749 107.249743 104.499749"></polygon>
                            <polygon id="Fill-162" points="39 142.499749 48.7502573 142.499749 48.7502573 132.999499 39 132.999499"></polygon>
                            <polygon id="Fill-163" points="48.7502573 152 87.7502573 152 87.7502573 142.499749 48.7502573 142.499749"></polygon>
                        </g>
                    </g>
                </g>
            </g>
        </g>
    </g>
</svg>