<?xml version="1.0" encoding="UTF-8"?>
<svg width="153px" height="149px" viewBox="0 0 153 149" version="1.1" xmlns="http://www.w3.org/2000/svg" xmlns:xlink="http://www.w3.org/1999/xlink">
    <title>ordinateur-pixel</title>
    <g id="Page-1" stroke="none" stroke-width="1" fill="none" fill-rule="evenodd">
        <g id="desktop" transform="translate(-1204.000000, -1225.000000)">
            <g id="MAIN" transform="translate(0.000000, 717.000000)">
                <g id="section-2---about" transform="translate(0.000000, 418.000000)">
                    <g id="emote" transform="translate(254.000000, 87.000000)">
                        <g id="ordinateur-pixel" transform="translate(950.000000, 3.000000)">
                            <polygon id="Fill-135" fill="#FFFFFF" points="19.1252572 0 133.874743 0 133.874743 83.8126252 153 83.8126252 153 149 0 149 0 83.8126252 19.1252572 83.8126252"></polygon>
                            <polygon id="Fill-136" fill="#000000" points="28.6871656 83.8127254 124.312423 83.8127254 124.312423 9.31272543 28.6871656 9.31272543"></polygon>
                            <polygon id="Fill-137" fill="#FFFFFF" points="38.2497942 74.5001002 114.749794 74.5001002 114.749794 18.6253507 38.2497942 18.6253507"></polygon>
                            <polygon id="Fill-138" fill="#000000" points="47.8124228 46.5622245 57.3750514 46.5622245 57.3750514 27.936974 47.8124228 27.936974"></polygon>
                            <polygon id="Fill-139" fill="#000000" points="47.8124228 65.187475 57.3750514 65.187475 57.3750514 55.8748497 47.8124228 55.8748497"></polygon>
                            <polygon id="Fill-140" fill="#000000" points="9.56273148 93.1249499 143.437474 93.1249499 143.437474 130.374449 133.874846 130.374449 133.874846 121.062826 124.312217 121.062826 124.312217 130.374449 114.750617 130.374449 114.750617 121.062826 105.187989 121.062826 105.187989 130.374449 95.6253601 130.374449 95.6253601 121.062826 86.0627315 121.062826 86.0627315 130.374449 76.5001029 130.374449 76.5001029 121.062826 66.9374743 121.062826 66.9374743 130.374449 57.3748457 130.374449 57.3748457 121.062826 47.8122171 121.062826 47.8122171 130.374449 38.2506173 130.374449 38.2506173 121.062826 28.6879887 121.062826 28.6879887 130.374449 19.1253601 130.374449 19.1253601 121.062826 9.56273148 121.062826"></polygon>
                            <polygon id="Fill-141" fill="#FFFFFF" points="95.6255658 111.749599 133.875051 111.749599 133.875051 102.436974 95.6255658 102.436974"></polygon>
                        </g>
                    </g>
                </g>
            </g>
        </g>
    </g>
</svg>