<?xml version="1.0" encoding="UTF-8"?>
<svg width="29px" height="28px" viewBox="0 0 29 28" version="1.1" xmlns="http://www.w3.org/2000/svg" xmlns:xlink="http://www.w3.org/1999/xlink">
    <title>Group 5</title>
    <g id="Page-1" stroke="none" stroke-width="1" fill="none" fill-rule="evenodd">
        <g id="Group-5" transform="translate(0.390800, 0.001000)">
            <polygon id="Fill-97" fill="#FFFFFF" points="0.000199999999 28 28.0002 28 28.0002 0 0.000199999999 0"></polygon>
            <polygon id="Fill-235" fill="#1A1A1A" points="3.5002 1.726 5.2502 1.726 5.2502 2.27262653e-13 3.5002 2.27262653e-13"></polygon>
            <polygon id="Fill-236" fill="#FFFFFF" points="5.25 0 28 0 28 5.179 26.25 5.179 26.25 3.453 24.5 3.453 24.5 1.726 22.75 1.726 22.75 3.453 24.5 3.453 24.5 5.179 26.25 5.179 26.25 12.084 24.5 12.084 24.5 13.81 22.75 13.81 22.75 15.536 24.5 15.536 24.5 13.81 26.25 13.81 26.25 12.084 28 12.084 28 27.62 15.75 27.62 15.75 25.894 17.5 25.894 17.5 22.442 19.25 22.442 19.25 20.715 21 20.715 21 18.989 19.25 18.989 19.25 17.263 17.5 17.263 17.5 15.536 15.75 15.536 15.75 12.084 17.5 12.084 17.5 5.179 15.75 5.179 15.75 3.453 10.5 3.453 10.5 5.179 8.75 5.179 8.75 12.084 10.5 12.084 10.5 15.536 8.75 15.536 8.75 17.263 7 17.263 7 18.989 5.25 18.989 5.25 24.168 7 24.168 7 25.894 8.75 25.894 8.75 27.62 0 27.62 0 10.358 1.75 10.358 1.75 3.453 3.5 3.453 3.5 1.726 5.25 1.726"></polygon>
            <polygon id="Fill-237" fill="#1A1A1A" points="22.7502 3.453 24.5002 3.453 24.5002 1.727 22.7502 1.727"></polygon>
            <polygon id="Fill-238" fill="#1A1A1A" points="5.2502 5.179 7.0002 5.179 7.0002 3.453 5.2502 3.453"></polygon>
            <polygon id="Fill-239" fill="#1A1A1A" points="10.5 3.4525 15.75 3.4525 15.75 5.1785 14 5.1785 14 6.9055 12.25 6.9055 12.25 5.1785 10.5 5.1785"></polygon>
            <polygon id="Fill-240" fill="#1A1A1A" points="19.2502 5.179 21.0002 5.179 21.0002 3.453 19.2502 3.453"></polygon>
            <polygon id="Fill-241" fill="#1A1A1A" points="24.5002 5.179 26.2502 5.179 26.2502 3.453 24.5002 3.453"></polygon>
            <polygon id="Fill-242" fill="#1A1A1A" points="3.5002 12.084 5.2502 12.084 5.2502 5.179 3.5002 5.179"></polygon>
            <polygon id="Fill-243" fill="#1A1A1A" points="8.75 5.1789 10.5 5.1789 10.5 6.9049 12.25 6.9049 12.25 8.6319 10.5 8.6319 10.5 10.3579 12.25 10.3579 12.25 12.0839 14 12.0839 14 10.3579 15.75 10.3579 15.75 8.6319 14 8.6319 14 6.9049 15.75 6.9049 15.75 5.1789 17.5 5.1789 17.5 12.0839 15.75 12.0839 15.75 15.5369 17.5 15.5369 17.5 17.2629 19.25 17.2629 19.25 18.9889 17.5 18.9889 17.5 20.7149 19.25 20.7149 19.25 22.4419 17.5 22.4419 17.5 25.8939 15.75 25.8939 15.75 24.1679 12.25 24.1679 12.25 22.4419 15.75 22.4419 15.75 20.7149 12.25 20.7149 12.25 18.9889 15.75 18.9889 15.75 17.2629 8.75 17.2629 8.75 15.5369 10.5 15.5369 10.5 12.0839 8.75 12.0839"></polygon>
            <polygon id="Fill-244" fill="#FFFFFF" points="10.5002 6.905 12.2502 6.905 12.2502 5.179 10.5002 5.179"></polygon>
            <polygon id="Fill-245" fill="#FFFFFF" points="14.0002 6.905 15.7502 6.905 15.7502 5.179 14.0002 5.179"></polygon>
            <polygon id="Fill-246" fill="#1A1A1A" points="21.0002 10.358 22.7502 10.358 22.7502 5.179 21.0002 5.179"></polygon>
            <polygon id="Fill-247" fill="#1A1A1A" points="26.2502 12.084 28.0002 12.084 28.0002 5.179 26.2502 5.179"></polygon>
            <polygon id="Fill-248" fill="#FFFFFF" points="12.2502 8.631 14.0002 8.631 14.0002 6.905 12.2502 6.905"></polygon>
            <polygon id="Fill-249" fill="#FFFFFF" points="10.5002 10.358 12.2502 10.358 12.2502 8.632 10.5002 8.632"></polygon>
            <polygon id="Fill-250" fill="#1A1A1A" points="12.2502 10.358 14.0002 10.358 14.0002 8.632 12.2502 8.632"></polygon>
            <polygon id="Fill-251" fill="#FFFFFF" points="14.0002 10.358 15.7502 10.358 15.7502 8.632 14.0002 8.632"></polygon>
            <polygon id="Fill-252" fill="#FFFFFF" points="12.2502 12.084 14.0002 12.084 14.0002 10.358 12.2502 10.358"></polygon>
            <polygon id="Fill-253" fill="#1A1A1A" points="5.2502 13.81 7.0002 13.81 7.0002 12.084 5.2502 12.084"></polygon>
            <polygon id="Fill-254" fill="#1A1A1A" points="19.2502 13.81 21.0002 13.81 21.0002 12.084 19.2502 12.084"></polygon>
            <polygon id="Fill-255" fill="#1A1A1A" points="24.5002 13.81 26.2502 13.81 26.2502 12.084 24.5002 12.084"></polygon>
            <polygon id="Fill-256" fill="#FFFFFF" points="12.2502 15.537 14.0002 15.537 14.0002 13.811 12.2502 13.811"></polygon>
            <polygon id="Fill-257" fill="#1A1A1A" points="22.7502 15.537 24.5002 15.537 24.5002 13.811 22.7502 13.811"></polygon>
            <polygon id="Fill-258" fill="#1A1A1A" points="7.0002 18.989 8.7502 18.989 8.7502 17.263 7.0002 17.263"></polygon>
            <polygon id="Fill-259" fill="#FFFFFF" points="8.75 17.2627 15.75 17.2627 15.75 18.9887 12.25 18.9887 12.25 20.7157 15.75 20.7157 15.75 22.4417 12.25 22.4417 12.25 24.1677 15.75 24.1677 15.75 25.8937 8.75 25.8937 8.75 24.1677 7 24.1677 7 18.9887 8.75 18.9887"></polygon>
            <polygon id="Fill-260" fill="#1A1A1A" points="5.2502 24.168 7.0002 24.168 7.0002 18.989 5.2502 18.989"></polygon>
            <polygon id="Fill-261" fill="#FFFFFF" points="17.5002 20.715 19.2502 20.715 19.2502 18.989 17.5002 18.989"></polygon>
            <polygon id="Fill-262" fill="#1A1A1A" points="19.2502 20.715 21.0002 20.715 21.0002 18.989 19.2502 18.989"></polygon>
            <polygon id="Fill-263" fill="#1A1A1A" points="7.0002 25.894 8.7502 25.894 8.7502 24.168 7.0002 24.168"></polygon>
            <polygon id="Fill-264" fill="#1A1A1A" points="8.7502 27.62 15.7502 27.62 15.7502 25.894 8.7502 25.894"></polygon>
        </g>
    </g>
</svg>