<?xml version="1.0" encoding="UTF-8"?>
<svg width="328px" height="66px" viewBox="0 0 328 66" version="1.1" xmlns="http://www.w3.org/2000/svg" xmlns:xlink="http://www.w3.org/1999/xlink">
    <title>Group 7</title>
    <g id="Page-1" stroke="none" stroke-width="1" fill="none" fill-rule="evenodd">
        <g id="pixels" transform="translate(-916.000000, -1358.000000)">
            <g id="Group-7" transform="translate(916.000000, 1358.000000)">
                <rect id="pixel" fill="#150DF7" x="0" y="32" width="148" height="34"></rect>
                <rect id="pixel" fill="#150DF7" x="180" y="32" width="148" height="34"></rect>
                <g id="guitare-pixel" transform="translate(115.000000, 0.000000)">
                    <polygon id="Fill-206" fill="#FFFFFF" points="0.0002 0 26.3082 0 26.3082 4.047 24.2842 4.047 24.2842 6.071 22.2602 6.071 22.2602 8.095 20.2372 8.095 20.2372 10.118 18.2132 10.118 18.2132 12.142 14.1662 12.142 14.1662 8.095 16.1892 8.095 16.1892 4.047 14.1662 4.047 14.1662 6.071 12.1422 6.071 12.1422 8.095 10.1182 8.095 10.1182 14.166 8.0952 14.166 8.0952 16.189 4.0472 16.189 4.0472 18.213 0.0002 18.213"></polygon>
                    <polygon id="Fill-207" fill="#1A1A1A" points="26.3081 0 32.3791 0 32.3791 6.071 28.3321 6.071 28.3321 4.047 26.3081 4.047"></polygon>
                    <polygon id="Fill-208" fill="#FFFFFF" points="28.332 4.0478 30.356 4.0478 30.356 2.0238 28.332 2.0238"></polygon>
                    <polygon id="Fill-209" fill="#1A1A1A" points="14.166 4.0474 16.19 4.0474 16.19 8.0944 14.166 8.0944 14.166 12.1424 18.213 12.1424 18.213 14.1654 16.19 14.1654 16.19 16.1894 14.166 16.1894 14.166 18.2134 12.142 18.2134 12.142 20.2364 10.119 20.2364 10.119 22.2604 8.095 22.2604 8.095 24.2844 6.071 24.2844 6.071 22.2604 4.048 22.2604 4.048 24.2844 6.071 24.2844 6.071 26.3074 8.095 26.3074 8.095 28.3314 10.119 28.3314 10.119 26.3074 8.095 26.3074 8.095 24.2844 10.119 24.2844 10.119 22.2604 12.142 22.2604 12.142 20.2364 14.166 20.2364 14.166 18.2134 16.19 18.2134 16.19 20.2364 22.261 20.2364 22.261 22.2604 20.237 22.2604 20.237 24.2844 16.19 24.2844 16.19 26.3074 14.166 26.3074 14.166 32.3794 2.024 32.3794 2.024 30.3554 0 30.3554 0 18.2134 4.048 18.2134 4.048 16.1894 8.095 16.1894 8.095 14.1654 10.119 14.1654 10.119 8.0944 12.142 8.0944 12.142 6.0714 14.166 6.0714"></polygon>
                    <polygon id="Fill-210" fill="#1A1A1A" points="24.284 6.0708 26.308 6.0708 26.308 4.0468 24.284 4.0468"></polygon>
                    <polygon id="Fill-211" fill="#FFFFFF" points="26.308 6.0708 28.332 6.0708 28.332 4.0468 26.308 4.0468"></polygon>
                    <polygon id="Fill-212" fill="#1A1A1A" points="22.261 8.0948 24.285 8.0948 24.285 6.0708 22.261 6.0708"></polygon>
                    <polygon id="Fill-213" fill="#FFFFFF" points="24.284 8.0948 26.308 8.0948 26.308 6.0708 24.284 6.0708"></polygon>
                    <polygon id="Fill-214" fill="#1A1A1A" points="26.308 8.0948 28.332 8.0948 28.332 6.0708 26.308 6.0708"></polygon>
                    <polygon id="Fill-215" fill="#FFFFFF" points="28.3317 6.071 32.3787 6.071 32.3787 32.379 14.1657 32.379 14.1657 26.308 16.1897 26.308 16.1897 24.284 20.2367 24.284 20.2367 22.26 22.2607 22.26 22.2607 20.237 16.1897 20.237 16.1897 18.213 18.2137 18.213 18.2137 16.189 20.2367 16.189 20.2367 14.166 22.2607 14.166 22.2607 12.142 24.2847 12.142 24.2847 10.118 26.3077 10.118 26.3077 8.095 28.3317 8.095"></polygon>
                    <polygon id="Fill-216" fill="#1A1A1A" points="20.237 10.1188 22.261 10.1188 22.261 8.0948 20.237 8.0948"></polygon>
                    <polygon id="Fill-217" fill="#FFFFFF" points="22.261 10.1188 24.285 10.1188 24.285 8.0948 22.261 8.0948"></polygon>
                    <polygon id="Fill-218" fill="#1A1A1A" points="24.284 10.1188 26.308 10.1188 26.308 8.0948 24.284 8.0948"></polygon>
                    <polygon id="Fill-219" fill="#1A1A1A" points="18.213 12.1418 20.237 12.1418 20.237 10.1178 18.213 10.1178"></polygon>
                    <polygon id="Fill-220" fill="#FFFFFF" points="20.237 12.1418 22.261 12.1418 22.261 10.1178 20.237 10.1178"></polygon>
                    <polygon id="Fill-221" fill="#1A1A1A" points="22.261 12.1418 24.285 12.1418 24.285 10.1178 22.261 10.1178"></polygon>
                    <polygon id="Fill-222" fill="#FFFFFF" points="18.213 14.1658 20.237 14.1658 20.237 12.1418 18.213 12.1418"></polygon>
                    <polygon id="Fill-223" fill="#1A1A1A" points="20.237 14.1658 22.261 14.1658 22.261 12.1418 20.237 12.1418"></polygon>
                    <polygon id="Fill-224" fill="#FFFFFF" points="16.19 16.1898 18.214 16.1898 18.214 14.1658 16.19 14.1658"></polygon>
                    <polygon id="Fill-225" fill="#1A1A1A" points="18.213 16.1898 20.237 16.1898 20.237 14.1658 18.213 14.1658"></polygon>
                    <polygon id="Fill-226" fill="#FFFFFF" points="14.166 18.2128 16.19 18.2128 16.19 16.1888 14.166 16.1888"></polygon>
                    <polygon id="Fill-227" fill="#1A1A1A" points="16.19 18.2128 18.214 18.2128 18.214 16.1888 16.19 16.1888"></polygon>
                    <polygon id="Fill-228" fill="#FFFFFF" points="12.142 20.2368 14.166 20.2368 14.166 18.2128 12.142 18.2128"></polygon>
                    <polygon id="Fill-229" fill="#FFFFFF" points="10.119 22.2608 12.143 22.2608 12.143 20.2368 10.119 20.2368"></polygon>
                    <polygon id="Fill-230" fill="#FFFFFF" points="4.048 24.2838 6.072 24.2838 6.072 22.2598 4.048 22.2598"></polygon>
                    <polygon id="Fill-231" fill="#FFFFFF" points="8.095 24.2838 10.119 24.2838 10.119 22.2598 8.095 22.2598"></polygon>
                    <polygon id="Fill-232" fill="#FFFFFF" points="6.071 26.3078 8.095 26.3078 8.095 24.2838 6.071 24.2838"></polygon>
                    <polygon id="Fill-233" fill="#FFFFFF" points="8.095 28.3318 10.119 28.3318 10.119 26.3078 8.095 26.3078"></polygon>
                    <polygon id="Fill-234" fill="#FFFFFF" points="0 32.3788 2.024 32.3788 2.024 30.3548 0 30.3548"></polygon>
                </g>
            </g>
        </g>
    </g>
</svg>