<?xml version="1.0" encoding="UTF-8"?>
<svg width="140px" height="411px" viewBox="0 0 140 411" version="1.1" xmlns="http://www.w3.org/2000/svg" xmlns:xlink="http://www.w3.org/1999/xlink">
    <title>pixel-left</title>
    <g id="Page-1" stroke="none" stroke-width="1" fill="none" fill-rule="evenodd">
        <g id="desktop" transform="translate(0.000000, -1503.000000)">
            <g id="MAIN" transform="translate(0.000000, 717.000000)">
                <g id="section-3---planning" transform="translate(0.000000, 786.000000)">
                    <g id="pixel-left" transform="translate(0.000000, 0.000000)">
                        <polygon id="Fill-84" fill="#0000FF" points="0 382.876 27.971 382.876 27.971 0 0 0"></polygon>
                        <polygon id="Fill-86" fill="#F2F2F2" points="0 405.903 27.971 405.903 27.971 382.876 0 382.876"></polygon>
                        <polygon id="Fill-87" fill="#0000FF" points="27.971 410.846 55.942 410.846 55.942 382.876 27.971 382.876"></polygon>
                        <polygon id="Fill-88" fill="#F2F2F2" points="27.971 382.876 55.942 382.876 55.942 0 27.971 0"></polygon>
                        <polygon id="Fill-89" fill="#0000FF" points="55.942 382.876 83.913 382.876 83.913 0 55.942 0"></polygon>
                        <polygon id="Fill-90" fill="#F2F2F2" points="55.942 406 83.913 406 83.913 382.876 55.942 382.876"></polygon>
                        <polygon id="Fill-91" fill="#0000FF" points="83.913 410.846 111.884 410.846 111.884 382.876 83.913 382.876"></polygon>
                        <polygon id="Fill-92" fill="#F2F2F2" points="83.913 382.876 111.884 382.876 111.884 0 83.913 0"></polygon>
                        <polygon id="Fill-93" fill="#0000FF" points="111.885 382.876 139.856 382.876 139.856 0 111.885 0"></polygon>
                        <polygon id="Fill-94" fill="#F2F2F2" points="111.885 406 139.856 406 139.856 382.876 111.885 382.876"></polygon>
                    </g>
                </g>
            </g>
        </g>
    </g>
</svg>