<?xml version="1.0" encoding="UTF-8"?>
<svg width="33px" height="32px" viewBox="0 0 33 32" version="1.1" xmlns="http://www.w3.org/2000/svg" xmlns:xlink="http://www.w3.org/1999/xlink">
    <title>Group 2</title>
    <g id="Page-1" stroke="none" stroke-width="1" fill="none" fill-rule="evenodd">
        <g id="Group-521" transform="translate(-873.000000, -525.000000)">
            <g id="Group-81" transform="translate(0.000000, 0.001000)">
                <g id="Group-2" transform="translate(873.390800, 525.000000)">
                    <polygon id="Fill-62" fill="#1A1A1A" points="0 0 10 0 10 2 12 2 12 4 16 4 16 6 18 6 18 8 20 8 20 10 22 10 22 8 20 8 20 6 18 6 18 4 16 4 16 2 12 2 12 0 24 0 24 2 28 2 28 4 30 4 30 8 32 8 32 32 30 32 30 30 26 30 26 26 24 26 24 20 26 20 26 14 24 14 24 12 22 12 22 14 20 14 20 12 16 12 16 10 12 10 12 8 8 8 8 6 6 6 6 14 2 14 2 12 4 12 4 10 2 10 2 8 0 8"></polygon>
                    <polygon id="Fill-63" fill="#FFFFFF" points="10.0002 4 12.0002 4 12.0002 2 10.0002 2"></polygon>
                    <polygon id="Fill-64" fill="#FFFFFF" points="24 0 32 0 32 8 30 8 30 4 28 4 28 2 24 2"></polygon>
                    <polygon id="Fill-65" fill="#FFFFFF" points="12.0002 6 16.0002 6 16.0002 4 12.0002 4"></polygon>
                    <polygon id="Fill-66" fill="#FFFFFF" points="16.0002 8 18.0002 8 18.0002 6 16.0002 6"></polygon>
                    <polygon id="Fill-67" fill="#FFFFFF" points="6 6 8 6 8 8 12 8 12 10 16 10 16 12 20 12 20 14 22 14 22 16 24 16 24 14 26 14 26 20 24 20 24 26 26 26 26 30 30 30 30 32 16 32 16 30 12 30 12 24 8 24 8 22 4 22 4 20 6 20 6 18 8 18 8 14 6 14"></polygon>
                    <polygon id="Fill-68" fill="#FFFFFF" points="18.0002 10 20.0002 10 20.0002 8 18.0002 8"></polygon>
                    <polygon id="Fill-69" fill="#0000FF" points="0 8 2 8 2 10 4 10 4 12 2 12 2 14 6 14 6 18 4 18 4 20 2 20 2 22 4 22 4 24 8 24 8 28 10 28 10 30 12 30 12 32 0 32"></polygon>
                    <polygon id="Fill-70" fill="#FFFFFF" points="20.0002 10 22.0002 10 22.0002 8 20.0002 8"></polygon>
                    <polygon id="Fill-71" fill="#1A1A1A" points="10 12 14 12 14 14 16 14 16 16 14 16 14 18 12 18 12 14 10 14"></polygon>
                    <polygon id="Fill-72" fill="#FFFFFF" points="22.0002 16 24.0002 16 24.0002 14 22.0002 14"></polygon>
                    <polygon id="Fill-73" fill="#1A1A1A" points="6.0002 20 8.0002 20 8.0002 16 6.0002 16"></polygon>
                    <polygon id="Fill-74" fill="#1A1A1A" points="22.0002 18 24.0002 18 24.0002 16 22.0002 16"></polygon>
                    <polygon id="Fill-75" fill="#1A1A1A" points="4.0002 22 6.0002 22 6.0002 20 4.0002 20"></polygon>
                    <polygon id="Fill-76" fill="#1A1A1A" points="2.0002 24 4.0002 24 4.0002 22 2.0002 22"></polygon>
                    <polygon id="Fill-77" fill="#1A1A1A" points="4.0002 24 8.0002 24 8.0002 22 4.0002 22"></polygon>
                    <polygon id="Fill-78" fill="#1A1A1A" points="8 24 12 24 12 30 10 30 10 28 8 28"></polygon>
                    <polygon id="Fill-79" fill="#1A1A1A" points="16.0002 32 20.0002 32 20.0002 30 16.0002 30"></polygon>
                    <polygon id="Fill-80" fill="#1A1A1A" points="12.0002 32 16.0002 32 16.0002 30 12.0002 30"></polygon>
                </g>
            </g>
        </g>
    </g>
</svg>