<?xml version="1.0" encoding="UTF-8"?>
<svg width="296px" height="316px" viewBox="0 0 296 316" version="1.1" xmlns="http://www.w3.org/2000/svg" xmlns:xlink="http://www.w3.org/1999/xlink">
    <title>pouce-pixel</title>
    <g id="Page-1" stroke="none" stroke-width="1" fill="none" fill-rule="evenodd">
        <g id="desktop" transform="translate(-254.000000, -2303.000000)">
            <g id="MAIN" transform="translate(0.000000, 717.000000)">
                <g id="section-3---planning" transform="translate(0.000000, 786.000000)">
                    <g id="last" transform="translate(0.000000, 754.000000)">
                        <g id="pouce-pixel" transform="translate(254.000000, 46.000000)">
                            <polygon id="Fill-193" fill="#1A1A1A" points="98.667 0 138.134 0 138.134 19.733 118.4 19.733 118.4 98.667 98.667 98.667"></polygon>
                            <polygon id="Fill-194" fill="#1A1A1A" points="138.1335 39.4669 157.8665 39.4669 157.8665 19.7339 138.1335 19.7339"></polygon>
                            <polygon id="Fill-195" fill="#1A1A1A" points="157.8669 39.4667 177.5999 39.4667 177.5999 118.3997 276.2669 118.3997 276.2669 138.1337 256.5339 138.1337 256.5339 157.8667 197.3339 157.8667 197.3339 177.5997 276.2669 177.5997 276.2669 138.1337 295.9999 138.1337 295.9999 276.2667 276.2669 276.2667 276.2669 315.7337 197.3339 315.7337 197.3339 295.9997 177.5999 295.9997 177.5999 217.0667 157.8669 217.0667 157.8669 197.3337 177.5999 197.3337 177.5999 157.8667 157.8669 157.8667 157.8669 138.1337 138.1339 138.1337 138.1339 98.6667 157.8669 98.6667"></polygon>
                            <polygon id="Fill-196" fill="#1A1A1A" points="78.9335 118.3999 98.6665 118.3999 98.6665 98.6669 78.9335 98.6669"></polygon>
                            <polygon id="Fill-197" fill="#1A1A1A" points="59.2005 138.1329 78.9335 138.1329 78.9335 118.3999 59.2005 118.3999"></polygon>
                            <polygon id="Fill-198" fill="#1A1A1A" points="39.4665 177.5999 59.1995 177.5999 59.1995 138.1329 39.4665 138.1329"></polygon>
                            <polygon id="Fill-199" fill="#1A1A1A" points="0.0003 177.6 39.4673 177.6 39.4673 236.8 19.7333 236.8 19.7333 197.333 0.0003 197.333"></polygon>
                            <polygon id="Fill-200" fill="#FFFFFF" points="197.3335 217.0669 276.2665 217.0669 276.2665 197.3339 197.3335 197.3339"></polygon>
                            <polygon id="Fill-201" fill="#1A1A1A" points="98.6665 236.7999 157.8665 236.7999 157.8665 217.0669 98.6665 217.0669"></polygon>
                            <polygon id="Fill-202" fill="#FFFFFF" points="197.3335 256.5329 276.2665 256.5329 276.2665 236.7999 197.3335 236.7999"></polygon>
                            <polygon id="Fill-203" fill="#1A1A1A" points="39.467 256.5333 59.2 256.5333 59.2 276.2663 78.934 276.2663 78.934 296.0003 0 296.0003 0 276.2663 39.467 276.2663"></polygon>
                            <polygon id="Fill-204" fill="#FFFFFF" points="197.3335 295.9999 256.5335 295.9999 256.5335 276.2669 197.3335 276.2669"></polygon>
                            <polygon id="Fill-205" fill="#1A1A1A" points="78.9335 315.7329 177.6005 315.7329 177.6005 295.9999 78.9335 295.9999"></polygon>
                        </g>
                    </g>
                </g>
            </g>
        </g>
    </g>
</svg>