<?xml version="1.0" encoding="UTF-8"?>
<svg width="339px" height="255px" viewBox="0 0 339 255" version="1.1" xmlns="http://www.w3.org/2000/svg" xmlns:xlink="http://www.w3.org/1999/xlink">
    <title>telephone-pixel</title>
    <g id="Page-1" stroke="none" stroke-width="1" fill="none" fill-rule="evenodd">
        <g id="desktop" transform="translate(-1336.000000, -1958.000000)">
            <g id="MAIN" transform="translate(0.000000, 717.000000)">
                <g id="section-3---planning" transform="translate(0.000000, 786.000000)">
                    <g id="second" transform="translate(0.000000, 411.000000)">
                        <g id="right" transform="translate(916.000000, 0.000000)">
                            <g id="telephone-pixel" transform="translate(420.000000, 44.000000)">
                                <polygon id="Fill-182" fill="#1A1A1A" points="42.375 0 296.623 0 296.623 21.187 317.811 21.187 317.811 42.375 338.998 42.375 338.998 84.749 254.249 84.749 254.249 42.375 84.75 42.375 84.75 84.749 0 84.749 0 42.375 21.188 42.375 21.188 21.187 42.375 21.187"></polygon>
                                <polygon id="Fill-183" fill="#1A1A1A" points="105.937 63.562 148.312 63.562 148.312 84.749 190.687 84.749 190.687 63.562 233.061 63.562 233.061 84.749 254.249 84.749 254.249 105.937 296.623 105.937 296.623 127.124 317.811 127.124 317.811 169.499 338.998 169.499 338.998 233.061 317.811 233.061 317.811 254.248 21.188 254.248 21.188 233.061 0 233.061 0 169.499 21.188 169.499 21.188 127.124 42.375 127.124 42.375 105.937 84.75 105.937 84.75 84.749 105.937 84.749"></polygon>
                                <polygon id="Fill-184" fill="#FFFFFF" points="127.1243 127.124 148.3113 127.124 148.3113 105.937 127.1243 105.937"></polygon>
                                <polygon id="Fill-185" fill="#FFFFFF" points="169.4993 127.124 190.6863 127.124 190.6863 105.937 169.4993 105.937"></polygon>
                                <polygon id="Fill-186" fill="#FFFFFF" points="211.8733 127.124 233.0603 127.124 233.0603 105.937 211.8733 105.937"></polygon>
                                <polygon id="Fill-187" fill="#FFFFFF" points="127.1243 169.499 148.3113 169.499 148.3113 148.312 127.1243 148.312"></polygon>
                                <polygon id="Fill-188" fill="#FFFFFF" points="169.4993 169.499 190.6863 169.499 190.6863 148.312 169.4993 148.312"></polygon>
                                <polygon id="Fill-189" fill="#FFFFFF" points="211.8733 169.499 233.0603 169.499 233.0603 148.312 211.8733 148.312"></polygon>
                                <polygon id="Fill-190" fill="#FFFFFF" points="296.6233 211.873 317.8103 211.873 317.8103 190.686 296.6233 190.686"></polygon>
                                <polygon id="Fill-191" fill="#FFFFFF" points="63.5623 233.061 190.6863 233.061 190.6863 211.874 63.5623 211.874"></polygon>
                                <polygon id="Fill-192" fill="#FFFFFF" points="211.8733 233.061 296.6233 233.061 296.6233 211.874 211.8733 211.874"></polygon>
                            </g>
                        </g>
                    </g>
                </g>
            </g>
        </g>
    </g>
</svg>