<?xml version="1.0" encoding="UTF-8"?>
<svg width="153px" height="149px" viewBox="0 0 153 149" version="1.1" xmlns="http://www.w3.org/2000/svg" xmlns:xlink="http://www.w3.org/1999/xlink">
    <title>visage-homme-pixel</title>
    <g id="Page-1" stroke="none" stroke-width="1" fill="none" fill-rule="evenodd">
        <g id="desktop" transform="translate(-886.000000, -1225.000000)" fill="#FFFFFF">
            <g id="MAIN" transform="translate(0.000000, 717.000000)">
                <g id="section-2---about" transform="translate(0.000000, 418.000000)">
                    <g id="emote" transform="translate(254.000000, 87.000000)">
                        <g id="visage-homme-pixel" transform="translate(632.000000, 3.000000)">
                            <polygon id="Fill-130" points="57.375 0 124.3125 0 124.3125 9.31247497 143.4375 9.31247497 143.4375 18.6249499 153 18.6249499 153 37.2498999 143.4375 37.2498999 143.4375 46.5623748 133.875 46.5623748 133.875 55.8748498 124.3125 55.8748498 124.3125 74.4997998 114.75 74.4997998 114.75 83.8122747 95.625 83.8122747 95.625 74.4997998 86.0625 74.4997998 86.0625 65.1873248 114.75 65.1873248 114.75 55.8748498 86.0625 55.8748498 86.0625 46.5623748 105.1875 46.5623748 105.1875 37.2498999 76.5 37.2498999 76.5 46.5623748 66.9375 46.5623748 66.9375 55.8748498 57.375 55.8748498 57.375 102.437225 47.8125 102.437225 47.8125 93.1247497 38.25 93.1247497 38.25 121.062175 57.375 121.062175 57.375 148.9996 47.8125 148.9996 47.8125 130.37465 28.6875 130.37465 28.6875 121.062175 19.125 121.062175 19.125 111.7497 9.5625 111.7497 9.5625 93.1247497 0 93.1247497 0 65.1873248 9.5625 65.1873248 9.5625 46.5623748 19.125 46.5623748 19.125 27.9374249 28.6875 27.9374249 28.6875 18.6249499 38.25 18.6249499 38.25 9.31247497 57.375 9.31247497"></polygon>
                            <polygon id="Fill-131" points="124.312706 83.8127753 133.875206 83.8127753 133.875206 74.5003004 124.312706 74.5003004"></polygon>
                            <polygon id="Fill-132" points="133.875206 93.1252503 143.437706 93.1252503 143.437706 83.8127753 133.875206 83.8127753"></polygon>
                            <polygon id="Fill-133" points="124.312603 93.1250501 133.875103 93.1250501 133.875103 130.37495 124.312603 130.37495 124.312603 111.75 114.750103 111.75 114.750103 102.437525 124.312603 102.437525"></polygon>
                            <polygon id="Fill-134" points="95.6251028 130.37505 124.312603 130.37505 124.312603 139.687525 114.750103 139.687525 114.750103 149 105.187603 149 105.187603 139.687525 95.6251028 139.687525"></polygon>
                        </g>
                    </g>
                </g>
            </g>
        </g>
    </g>
</svg>